<?xml version="1.0" encoding="utf-8" ?><svg xmlns="http://www.w3.org/2000/svg" xmlns:xlink="http://www.w3.org/1999/xlink" width="3000" height="1000" viewBox="0 0 3000 1000"><path d="M2528.6 111.395C2544.85 108.44 2562.28 117.777 2571.83 130.65L2572.59 130.125C2599.46 111.688 2659.57 118.84 2677.89 145.845C2680.03 145.637 2686.56 145.036 2688.5 145.065C2721.28 145.553 2776.76 174.838 2793.47 203.462C2796.23 208.147 2798.26 213.641 2799.6 218.843C2801.89 227.743 2797.03 228.62 2807.11 229.435C2836.42 231.805 2861.44 247.276 2882.45 267.041C2898.45 282.1 2933.37 327.797 2913.2 348.723C2932.12 357.012 2948.89 370.46 2960.32 387.725C2971.87 405.168 3004.78 464.825 2980.16 480.714C2980.65 538.207 2928.08 584.122 2878.68 603.945C2866.8 608.716 2841 611.148 2827.28 613.114C2803.8 616.686 2780.28 620.039 2756.74 623.175C2651.39 637.451 2538.75 652.587 2433.13 661.134C2434.22 699.029 2445.21 747.356 2423.05 780.084C2416.7 790.803 2395.07 805.973 2383.7 807.326C2351.67 811.224 2350.65 764.225 2351.58 742.707C2352.77 715.082 2349.84 693.638 2345.25 666.61C2326.96 667.205 2303.63 668.368 2285.56 670.132C2285.13 671.785 2284.67 673.431 2284.18 675.067C2270.8 719.556 2220.15 709.737 2202.78 675.547C2180.04 676.222 2131.64 672.93 2113.51 676.151C2109.76 699.275 2111 725.988 2095.95 745.474C2080.8 765.082 2051.99 764.807 2033.87 749.333C2020.45 737.877 2016.97 723.682 2015.47 706.909C1990.73 728.43 1963.88 733.942 1931.68 729.841C1901.3 725.974 1881.52 712.599 1864.42 687.724C1850.46 719.385 1823.92 734.489 1789.02 730.441C1769.65 728.195 1756.67 717.318 1745.18 702.216C1739.76 708.972 1733.29 714.818 1726.03 719.532C1693.23 740.677 1648.74 731.788 1625.47 700.89C1622 696.279 1619.08 691.865 1615.99 686.984C1614.31 689.528 1612.58 692.038 1610.8 694.513C1576.08 742.117 1504.05 738.916 1459.59 707.76C1456.96 705.92 1454.37 704.024 1451.79 702.119C1419.56 741.256 1380.82 740.071 1346.58 704.019C1301.32 744.813 1242.06 735.813 1195.6 702.064C1163.93 743.9 1118.92 738.331 1087.23 699.959C1076.46 713.937 1066.44 722.212 1049.3 727.529C1029.68 733.617 997.382 731.75 979.569 721.041C912.526 680.737 956.403 580.524 962.866 521.052C966.533 487.314 966.013 465.476 956.927 433.393C917.465 502.355 860.03 528.47 783.114 536.896C783.061 555.686 783.966 568.992 790.096 586.58C805.45 578.413 811.03 571.837 824.11 559.992C834.053 583.802 840.848 601.621 841.934 627.513C844.05 677.968 816.722 730.691 760.724 731.041C739.148 731.177 718.241 726.81 702.117 711.242C680.563 690.432 677.478 661.662 676.741 633.25C676.596 596.845 684.127 565.251 689.307 529.6C699.018 462.754 711.602 387.084 685.785 322.463C678.341 303.829 668.787 289.778 657.615 273.764C664.237 267.114 671.369 259.979 679.247 254.752C706.77 236.493 751.88 234.281 777.537 257.17C782.363 261.476 785.468 265.738 789.037 271.097C801.505 260.727 815.756 252.713 831.093 247.446C861.668 236.727 895.266 238.736 924.345 253.023C928.989 221.615 947.359 199.811 978.334 190.781C1002.85 183.635 1034.81 185.332 1057.41 197.86C1073.6 206.733 1085.55 221.724 1090.61 239.479C1095.96 258.36 1094.4 284.019 1084.36 301.097C1072.43 321.384 1056.32 330.061 1034.56 336.13C1047.93 339.64 1060.36 346.018 1068.47 357.667C1073.63 365.149 1076.6 373.916 1077.05 382.989C1078.07 401.927 1071.7 421.628 1067.77 440.227C1059 481.742 1047.55 524.682 1049.57 567.444C1049.8 572.212 1052.06 591.109 1056.18 590.895C1064.25 590.475 1084.51 569.823 1089.51 565.195C1098.18 586.855 1103.57 599.137 1107.17 622.472C1139.03 591.485 1151.78 571.668 1174.07 533.785C1157.39 530.336 1139.97 526.778 1125.86 516.702C1105.26 501.907 1091.43 479.482 1087.47 454.428C1082.94 426.127 1089.67 394.627 1106.72 371.416C1143.56 321.264 1204.67 332.506 1249.37 365.211C1284.05 323.304 1331.24 330.354 1361.76 372.836L1363.08 371.062C1400.07 322.037 1461.11 331.71 1505.39 365.24C1512.03 357.606 1517.92 350.79 1526.96 345.961C1573.02 321.372 1606.39 351.679 1627.98 389.268C1642.98 367.065 1658.7 349.135 1684.37 338.981C1707.49 329.838 1739.95 331.997 1762.41 342.41C1823.61 370.792 1814.54 468.348 1816.05 524.136C1816.71 548.307 1814.35 569.318 1822.93 592.1C1834.73 586.876 1847.02 574.323 1856.97 565.331L1861.11 576.209C1871.07 560.985 1878.05 554.966 1894.01 546.901C1848.6 515.067 1840.44 455.273 1857.15 404.991C1876.47 346.86 1937.48 320.515 1994.73 340.247C2067.05 365.174 2079.95 486.594 2008.39 518.797C2023.29 527.511 2032.28 537.438 2041.03 552.212C2053.39 519.372 2072.37 502.129 2094.29 475.368C2197.98 349.2 2327.22 246.418 2473.5 173.787C2463.82 135.74 2495.47 115.047 2528.6 111.395ZM810.769 454.268C834.617 443.885 855.097 429.436 864.898 404.271C866.606 399.885 868.103 394.526 866.212 389.95C865.409 387.964 863.815 386.404 861.812 385.643C858.688 384.468 854.531 385.002 851.273 385.173C833.611 389.17 823.301 400.528 813.977 415.334C805.515 428.769 800.425 443.435 796.48 458.731L810.769 454.268ZM1673.63 590.871C1700.51 578.197 1720.56 546.386 1730.36 519.268C1733.97 509.285 1740.18 489.766 1735.26 479.795C1734.07 477.383 1732.7 475.75 1730.39 474.336C1727.96 473.94 1725.93 473.883 1723.48 474.086C1701.22 481.667 1683.92 506.805 1673.99 527.118C1667.46 540.47 1656.46 569.435 1661.6 584.185C1662.31 586.234 1664 589.394 1666.04 590.351C1668.51 591.511 1671 591.108 1673.63 590.871ZM1271.83 545.723C1305.61 552.341 1338.41 560.015 1358.86 590.485C1362.88 596.442 1366.07 602.926 1368.33 609.753L1369.8 614.403C1371.19 614.541 1371.17 614.548 1372.27 613.637C1392.44 597.009 1417.19 556.578 1430.23 533.797C1399.91 527.302 1375.77 519.118 1358.06 491.856C1353.04 484.133 1348.58 475.023 1345.97 466.181C1344.35 460.702 1344.02 444.309 1341.68 440.951C1308.22 468.328 1290.59 507.969 1271.83 545.723ZM1527.92 545.638C1533.88 546.949 1539.87 548.162 1545.87 549.275C1560.69 552.416 1573.88 556.739 1587.01 564.372C1587.22 532.662 1590.23 500.045 1597.05 469.044C1598.46 462.647 1606.66 439.043 1605.42 434.854C1567.39 463.583 1548.59 504.239 1527.92 545.638ZM1184.94 514.473C1194.97 495.978 1204.49 477.213 1213.5 458.198L1200.59 458.17C1193.07 460.199 1188.84 462.872 1184.88 469.752C1176.19 484.819 1177.7 503.494 1181.35 519.707C1183.14 518.392 1183.93 516.399 1184.94 514.473ZM1955.86 474.3C1952.45 476.757 1949.94 479.044 1949.25 483.392C1948.78 486.377 1949.81 488.791 1951.67 491.052C1955.79 496.075 1961.89 498.191 1967.76 500.478C1970.64 497.245 1972.44 489.309 1972.16 485.025C1971.94 481.63 1970.19 477.864 1967.66 475.568C1964.63 472.824 1959.55 473.928 1955.86 474.3ZM1263.57 561.767C1255.44 578.355 1246.55 594.511 1237.94 610.846L1238.7 611.75C1241.28 611.899 1243.81 612.022 1246.4 611.949C1254.88 610.054 1260.65 606.982 1265.47 599.461C1269.78 592.736 1271.5 583.98 1269.68 576.153C1268.68 571.821 1266.16 565.374 1263.57 561.767ZM1935 566.48C1933.48 572.744 1931.03 581.763 1934.89 587.553C1936.12 589.4 1937.94 590.52 1940.13 590.84C1943.46 591.326 1948.21 590.011 1951.32 588.856C1953.14 586.242 1954.96 583.535 1954.48 580.161C1954.09 577.342 1951.51 574.873 1949.25 573.357C1944.96 570.494 1939.71 568.556 1935 566.48ZM1456.55 458.175C1448.94 460.254 1444.54 463.353 1440.66 470.333C1432.23 485.517 1434.17 503.112 1437.32 519.368L1438.35 519.094L1442.06 512.682C1451.7 494.731 1460.92 476.56 1469.72 458.184L1456.55 458.175ZM1503.5 611.806C1512.12 609.577 1517.73 605.996 1522.33 598.123C1526.18 591.522 1527.9 582.709 1525.68 575.259C1524.56 571.494 1522.18 564.818 1519.68 561.869C1516.99 567.239 1494.42 607.954 1494.39 611.22C1497.55 612.162 1500.24 612.028 1503.5 611.806Z"/><path fill="#FFD939" d="M2037.69 737.288C2019.77 720.96 2027.94 683.691 2027.19 662.65C2026.5 643.112 2020.99 622.962 2026.63 603.711C2029.91 591.156 2041.46 582.291 2046.91 571.03C2052.94 558.584 2052.57 544.902 2061.46 533.289C2071.36 520.34 2082.36 508.479 2092.62 495.759C2195.45 368.283 2330.17 254.67 2478.61 184.25C2481.27 187.871 2484.91 191.466 2488.05 194.752C2503.64 207.923 2522.62 215.164 2543.09 211.03C2553.03 248.861 2586.53 274.737 2626.15 269.222C2629.47 281.814 2632.77 291.096 2640.84 301.871C2653.56 318.844 2672.5 333.199 2693.14 338.875C2697.64 339.893 2702.61 340.577 2707.07 341.092C2707.75 341.17 2710.45 356.85 2711.06 358.359C2722.15 386.108 2744.59 408.044 2775.61 409.333C2777.7 444.117 2804.33 473.546 2828.02 497.66C2836.62 506.417 2843.38 504.211 2853.26 511.858C2833.94 533.57 2806.65 528.403 2780.01 529.166C2756.12 529.862 2732.25 531.125 2708.42 532.954C2678.13 535.412 2647.01 541.215 2617.2 543.444C2591.53 545.363 2562.89 545.85 2537.68 547.764C2455.81 553.98 2415.87 590.29 2421.71 674.653C2424.17 710.061 2434.66 760.536 2402.07 785.292C2349.73 826.25 2365.07 731.87 2363.7 707.001C2362.82 690.941 2352.9 660.171 2355.4 644.994C2361.72 606.667 2390.59 558.737 2323.81 557.368C2312.47 557.136 2295.38 562.149 2287.62 570.583C2263.68 596.194 2293.77 686.883 2252.47 693.614C2242.36 693.529 2228.67 689.619 2221.47 682.799C2213.3 675.328 2209.87 662.978 2210.02 652.195C2210.37 627.879 2215.55 589.234 2189.36 575.043C2139.22 547.885 2114.73 634.164 2104.46 666.42C2095.75 693.757 2104.62 744.851 2065.12 748.905C2056.48 749.694 2043.38 743.771 2037.69 737.288Z"/><path fill="#FFFEFE" d="M2037.69 737.288C2019.77 720.96 2027.94 683.691 2027.19 662.65C2026.5 643.112 2020.99 622.962 2026.63 603.711C2029.91 591.156 2041.46 582.291 2046.91 571.03C2052.94 558.584 2052.57 544.902 2061.46 533.289C2071.36 520.34 2082.36 508.479 2092.62 495.759C2195.45 368.283 2330.17 254.67 2478.61 184.25C2481.27 187.871 2484.91 191.466 2488.05 194.752C2469.73 205.082 2450.28 212.967 2431.75 223.218C2388.06 247.582 2346.13 274.991 2306.29 305.243C2293.67 314.645 2283.2 322.849 2271.77 333.754C2269.29 336.12 2263.02 340.551 2261.2 342.716L2256.71 346.11C2235.95 358.75 2184.41 420.159 2164.19 441.344C2160.21 442.677 2157.14 445.877 2155.98 449.907C2140.74 464.366 2112.54 488.756 2100.37 503.298C2077.19 531.012 2037.82 595.876 2038.78 631.649C2040.99 631.203 2042.21 630.994 2044.43 631.503C2048.18 636.258 2043.7 654.428 2044.24 662.292C2044.89 671.542 2050.67 685.417 2050.24 693.157L2048.99 695.629C2043.06 696.908 2040.05 693.053 2036.89 688.527C2035.67 700.248 2034.9 709.71 2036.36 721.469C2037.05 727.053 2040.26 733.329 2037.69 737.288Z"/><path d="M2261.2 342.716C2276.95 336.061 2295.18 333.8 2298.66 354.944C2302.06 375.546 2256.6 391.76 2247.77 369.065C2244.74 361.281 2251.7 351.665 2256.71 346.11L2261.2 342.716Z"/><path fill="#FA2B1C" d="M2273.86 346.307C2277.03 346.024 2280.73 345.671 2283.77 346.764C2286.06 347.592 2288.34 349.194 2289.27 351.535C2290.3 354.145 2289.54 357.185 2288.37 359.607C2284.91 366.804 2279.04 369.648 2271.89 372.163C2268.54 372.641 2264.74 372.593 2261.55 371.371C2259.36 370.53 2257.57 369.161 2256.76 366.876C2255.9 364.459 2256.47 361.927 2257.45 359.652C2260.7 352.128 2266.65 349.139 2273.86 346.307Z"/><path d="M2164.19 441.344C2169.77 439.475 2175.9 441.655 2179.05 446.624C2182.2 451.594 2181.55 458.07 2177.48 462.315C2173.4 466.559 2166.96 467.476 2161.86 464.536C2156.77 461.595 2154.34 455.557 2155.98 449.907C2157.14 445.877 2160.21 442.677 2164.19 441.344Z"/><path d="M2560.97 339.413C2590.78 337.701 2626.23 343.806 2650.49 362.202C2662.02 370.946 2669.09 383.177 2671.05 397.484C2672.94 411.313 2669.49 424.729 2661.01 435.834C2646.33 455.044 2621.97 465.138 2598.63 468.362C2598.2 468.426 2597.76 468.483 2597.33 468.535C2568.4 472.018 2535.33 464.589 2512.27 446.35C2499.6 436.324 2488.68 421.844 2486.98 405.346C2485.59 391.811 2490.52 378.835 2498.92 368.405C2514.38 349.228 2537.3 341.864 2560.97 339.413Z"/><path fill="#FA2B1C" d="M2560.52 347.417C2585.46 344.644 2620.54 352.428 2641.55 366.536C2651.85 373.454 2660.69 383.153 2663.04 395.712C2665.33 407.948 2661.23 420.683 2654.17 430.675C2641.73 448.252 2622.58 456.182 2602.01 459.684L2601.27 459.776C2574.01 463.154 2539.3 457.768 2517.22 440.371C2506.34 431.798 2497.41 419.8 2495.91 405.677C2494.61 393.376 2498.91 381.343 2506.68 371.883C2520.4 355.17 2539.75 349.408 2560.52 347.417Z"/><path fill="#FFFEFE" d="M2565.51 350.175C2572.37 349.628 2579.94 350.35 2586.06 353.684C2589.63 355.623 2595.61 360.245 2596.6 364.336C2596.96 365.821 2596.24 366.321 2595.46 367.528C2593.49 367.296 2591.51 367.077 2589.53 366.871C2566.02 364.436 2552.63 369.807 2534.63 384.401C2528.84 388.624 2524.07 395.285 2517.53 398.363L2515.62 397.629C2515.38 397.041 2515.21 396.745 2515.1 396.147C2514.11 390.708 2518.12 383.913 2520.97 379.532C2531.46 363.381 2546.9 354.096 2565.51 350.175Z"/><path d="M2644.24 403.273C2644.53 403.371 2644.82 403.454 2645.1 403.566C2646.81 404.247 2648.47 406.517 2649.09 408.231C2650.14 411.167 2649.14 414.471 2647.86 417.172C2642.87 427.719 2632.36 434.448 2621.75 438.101L2618.17 437.74L2618.07 436.647C2623.6 431.333 2630.87 428.418 2636.38 423.283C2642.29 417.765 2644.03 411.039 2644.24 403.273Z"/><path fill="#FFFEFE" d="M2513.14 405.501C2516.39 403.593 2520.56 404.612 2522.56 407.802C2524.57 410.992 2523.67 415.195 2520.54 417.286C2518.43 418.694 2515.72 418.845 2513.47 417.681C2511.22 416.517 2509.78 414.222 2509.71 411.689C2509.64 409.156 2510.96 406.786 2513.14 405.501Z"/><path d="M2399.61 256.141C2417.26 253.685 2443.85 260.464 2458.15 271.241C2471.63 281.405 2481.69 298.248 2483.89 315.038C2485.82 329.835 2480.68 344.11 2471.78 355.771C2455.94 376.528 2428.18 389.516 2402.77 393.026C2383.14 396.477 2359.26 393.294 2342.17 382.704C2328.77 374.523 2319.27 361.262 2315.83 345.951C2312.32 330.798 2314.79 315.89 2323.03 302.698C2339.43 276.435 2370.59 262.757 2399.61 256.141Z"/><path fill="#FA2B1C" d="M2397.5 265.103C2416.53 264.19 2434.8 265.96 2450.98 276.942C2463.1 285.169 2472.47 297.865 2475.16 312.42C2477.55 325.338 2474.14 338.219 2466.75 348.95C2452.64 369.464 2426.68 380.302 2403 384.706C2385.1 387.971 2365.27 386.483 2349.27 377.232C2336.44 369.945 2327.12 357.771 2323.42 343.488C2320.36 331.379 2322.33 319.578 2328.7 308.9C2342.67 285.461 2372.01 271.507 2397.5 265.103Z"/><path fill="#FFFEFE" d="M2396.69 268.138C2397.2 268.108 2397.71 268.08 2398.22 268.077C2402.98 268.044 2406.67 268.847 2410.74 271.542C2412.71 272.846 2413.29 273.366 2413.77 275.638C2410.33 279.991 2396.06 278.916 2389.8 282.559C2376.6 290.246 2366.14 305.815 2356.77 317.551C2355.75 318.824 2354.72 320.207 2353.54 321.34C2351.62 323.192 2350.78 323.282 2348.27 323.132L2346.64 321.05C2345.36 315.142 2347.33 309.275 2350.14 304.094C2359.66 286.579 2377.84 273.688 2396.69 268.138Z"/><path d="M2454.3 315.875C2457.12 316.902 2459.51 318.865 2461.06 321.437C2463.29 325.127 2463.43 329.231 2462.29 333.331C2459.93 341.864 2453.94 347.997 2446.41 352.185C2444.96 352.175 2443.88 352.057 2442.52 351.467C2441.08 350.839 2441.17 350.345 2440.61 348.936C2441.98 343.03 2451.04 336.373 2454.27 330.37C2457.07 325.162 2455.92 321.312 2454.3 315.875Z"/><path fill="#FFFEFE" d="M2346.66 336.558C2349.02 335.663 2351.68 336.144 2353.58 337.808C2355.48 339.473 2356.3 342.049 2355.72 344.505C2355.14 346.961 2353.25 348.896 2350.81 349.535C2347.3 350.454 2343.69 348.467 2342.58 345.013C2341.48 341.558 2343.27 337.844 2346.66 336.558Z"/><path d="M2416.05 363.078C2417.26 363.669 2417.51 364.369 2418.24 365.452L2417.27 368.094C2414.34 371.027 2411.42 372.54 2407.65 374.232C2405.88 372.344 2405.52 372.057 2405.1 369.532C2406.81 366.335 2412.82 364.626 2416.05 363.078Z"/><path d="M2267.13 395.361C2268.31 395.223 2269.5 395.11 2270.69 395.022C2298.08 393.024 2344.19 401.338 2365.19 419.84C2374.16 427.747 2380.23 438.367 2380.88 450.456C2381.59 463.475 2376.2 476.246 2367.56 485.825C2354.5 500.311 2337.41 503.931 2318.79 504.883C2294.28 503.515 2237.76 495.534 2218.98 480.963C2210.85 474.657 2204.87 465.899 2203.72 455.518C2202.34 443.022 2207.84 430.548 2215.51 420.929C2228.47 404.653 2246.93 397.571 2267.13 395.361Z"/><path fill="#FA2B1C" d="M2267.42 403.324C2269.52 402.933 2271.76 402.941 2273.89 402.839C2299.77 401.602 2340.88 408.496 2360.54 426.728C2367.41 433.097 2371.81 441.692 2371.97 451.15C2372.15 462.329 2367.26 472.987 2359.53 480.921C2348.14 492.62 2333.55 496.698 2317.72 496.864C2295.12 495.425 2241.3 487.328 2223.99 474.306C2217.59 469.494 2212.23 463.002 2211.17 454.832C2210.01 445.958 2214.08 437.378 2219.29 430.458C2231.15 414.724 2248.19 405.978 2267.42 403.324Z"/><path fill="#FFFEFE" d="M2263.78 411.299C2271.5 410.206 2284.52 410.344 2291.09 414.914C2291.87 415.454 2291.72 416.14 2291.89 417.027C2283.05 426.032 2261.01 416.486 2243.33 438.207C2240.71 442.106 2238.4 448.562 2234.89 451.476C2233.8 452.377 2233.21 452.041 2231.86 451.92C2229.84 450.281 2229.01 448.553 2228.46 446.069C2227.06 439.746 2228.84 432.785 2232.4 427.48C2239.77 416.524 2251.64 413.582 2263.78 411.299Z"/><path d="M2348.2 436.918C2349.28 436.939 2350.39 436.971 2351.45 437.198C2354.07 437.759 2356.86 439.829 2358.14 442.216C2359.63 444.988 2359.33 448.824 2358.56 451.767C2355.8 462.316 2347.77 471.736 2338.47 477.076C2335.91 476.851 2334.76 477.013 2332.71 475.34C2332.04 466.229 2346.23 457.735 2350.25 449.875C2352.36 445.73 2349.57 440.948 2348.2 436.918Z"/><path fill="#FFFEFE" d="M2237.11 457.637C2240.57 456.357 2244.43 458.037 2245.84 461.444C2247.26 464.85 2245.74 468.769 2242.39 470.324C2240.11 471.388 2237.42 471.113 2235.39 469.608C2233.37 468.102 2232.33 465.609 2232.69 463.111C2233.05 460.613 2234.74 458.512 2237.11 457.637Z"/><path d="M2307.88 468.625C2310.16 466.866 2313.42 467.258 2315.21 469.506C2317.01 471.754 2316.67 475.025 2314.45 476.854C2312.98 478.062 2310.98 478.386 2309.2 477.702C2307.43 477.017 2306.16 475.431 2305.89 473.55C2305.62 471.67 2306.38 469.787 2307.88 468.625Z"/><path d="M2158.58 493.138C2168.12 491.989 2175.53 493.572 2184.42 496.938C2186.72 500.724 2189.01 504.905 2189.51 509.369C2190.43 517.66 2187.51 525.462 2182.39 531.902C2173.33 543.279 2160.48 547.453 2146.66 549.09C2137.66 548.96 2127.49 548.467 2119.68 543.434C2115.95 541.029 2113.25 537.541 2112.32 533.151C2111.2 527.816 2113.04 522.348 2115.96 517.901C2124.97 504.16 2143.11 496.416 2158.58 493.138Z"/><path fill="#FA2B1C" d="M2160.08 501.213C2166.03 500.736 2173.88 500.355 2178.95 504.181C2181.05 505.771 2182.24 508.098 2182.46 510.718C2182.9 516.021 2179.42 521.78 2176.16 525.672C2166.97 536.656 2156.51 539.725 2142.92 541.024C2137.41 540.63 2130.34 540.052 2125.5 537.315C2123.16 535.993 2121.09 533.913 2120.54 531.204C2119.87 527.96 2121.35 524.564 2123.14 521.935C2131 510.435 2146.92 503.856 2160.08 501.213Z"/><path fill="#FFFEFE" d="M2140.98 527.346C2145.78 526.95 2150.83 526.583 2155.64 526.779C2158.34 526.888 2160.81 527.003 2162.65 529.028C2161.26 531.709 2158.32 532.49 2155.68 533.636C2149.01 535.381 2140.73 535.608 2134.48 532.447L2133.89 530.603C2135.55 528.227 2138.33 527.945 2140.98 527.346Z"/><path d="M2746.23 443.032C2747.74 442.883 2749.11 442.819 2750.58 443.244C2752.81 443.887 2754.1 444.255 2755.19 446.497C2758.69 453.66 2753.15 468.249 2750.6 475.303C2746.48 486.687 2741.63 500.811 2729.74 506.155C2722.8 509.275 2716.29 507.883 2709.47 505.205C2703.59 502.34 2697.01 497.266 2694.6 490.985C2692.96 486.707 2693.46 482.296 2695.33 478.18C2703.23 460.724 2729.6 449.448 2746.23 443.032Z"/><path fill="#FA2B1C" d="M2745.88 452.019C2746.96 452.236 2747.09 452.663 2747.82 453.445C2748.28 463.344 2741.02 479.159 2736.48 487.907C2733.88 492.918 2730.09 497.825 2724.45 499.492C2718.94 501.117 2713.87 498.309 2709.21 495.669C2707.27 493.987 2704.4 491.475 2703.33 489.105C2702.04 486.262 2702.18 483.015 2703.37 480.16C2708.94 466.709 2733.47 457.21 2745.88 452.019Z"/><path d="M2436.51 483.373C2443.57 483.041 2452.9 483.225 2458.99 487.226C2462.16 489.306 2464.19 492.345 2464.85 496.08C2465.91 501.985 2463.29 508.23 2459.84 512.901C2451.7 523.917 2440.87 527.993 2427.87 529.945C2420.03 529.532 2410.83 528.427 2404.4 523.565C2401 520.999 2398.72 517.445 2398.2 513.178C2397.62 508.363 2399.6 503.562 2402.51 499.818C2410.58 489.459 2423.91 484.864 2436.51 483.373Z"/><path fill="#FA2B1C" d="M2432.14 492.138C2437.48 491.635 2445.65 490.651 2450.66 492.856C2453.66 494.182 2455.09 495.581 2456.34 498.66C2456.57 501.326 2456.31 503.227 2455.07 505.614C2450.64 514.086 2440.82 518.79 2432.11 521.49C2426.49 521.532 2419.08 521.64 2413.89 519.314C2411.12 518.072 2408.4 516.098 2407.42 513.09C2406.55 510.454 2407.36 507.709 2408.75 505.423C2413.48 497.641 2423.82 494.31 2432.14 492.138Z"/><path d="M2520.88 238.394C2528.4 238.778 2533.95 239.989 2540.19 244.409C2547.71 249.728 2553.79 258.015 2555.26 267.238C2556.11 272.573 2555.29 278.106 2552 282.5C2547.33 288.741 2540.67 290.263 2533.38 291.269C2526.49 290.468 2520.36 288.457 2514.52 284.627C2507.02 279.702 2500.31 272.273 2498.64 263.2C2497.71 258.117 2498.45 252.786 2501.44 248.488C2506.05 241.864 2513.32 239.674 2520.88 238.394Z"/><path fill="#FA2B1C" d="M2517.47 247.238C2522.16 246.882 2525.96 246.522 2530.33 248.456C2537.4 251.586 2543.91 257.841 2546.63 265.162C2547.91 268.616 2548.12 272.306 2546.54 275.695C2544.47 280.15 2541.21 281.534 2536.78 283.104C2533.48 283.082 2529.93 282.561 2526.78 281.567C2519.61 279.299 2511.64 273.399 2508.15 266.62C2506.51 263.43 2505.86 259.904 2507.04 256.452C2508.79 251.327 2512.85 249.421 2517.47 247.238Z"/><path d="M2612.04 488.245C2618.34 487.649 2624.18 487.315 2630.42 488.869C2637.6 490.656 2645.72 494.33 2649.56 501.029C2651.46 504.327 2652.36 508.519 2651.19 512.216C2649.22 518.401 2642.55 523.606 2637.03 526.451C2630.4 528.248 2624.08 528.094 2617.59 525.706C2610 522.917 2602.42 517.296 2599.13 509.707C2597.58 506.139 2597.13 502.151 2598.73 498.515C2601.31 492.623 2606.38 490.465 2612.04 488.245Z"/><path fill="#FA2B1C" d="M2614.86 496.138C2618.99 495.913 2623.08 495.68 2627.15 496.557C2633.09 497.836 2639.33 500.217 2642.7 505.524C2642.88 506.647 2643.37 508.174 2643.06 509.26C2641.65 514.233 2637.53 516.393 2633.27 518.731C2629.56 519.46 2625.74 519.787 2622.06 518.719C2616.91 517.222 2609.59 513.046 2607.12 508.016C2606.17 506.081 2606.03 503.93 2606.8 501.93C2608.08 498.594 2611.84 497.411 2614.86 496.138Z"/><path d="M2603.4 285.095C2607.86 284.634 2612.97 283.96 2617.11 286.106C2622.71 289.006 2627.44 294.137 2629.36 300.182C2630.75 304.542 2630.5 308.98 2628.34 313.042C2625.17 319.028 2619.28 320.985 2613.21 322.883C2608.38 323.745 2603.98 324.095 2599.31 322.261C2594.39 320.328 2590.23 316.569 2588.12 311.689C2586.13 307.154 2586.12 301.993 2588.1 297.453C2591.1 290.476 2596.74 287.706 2603.4 285.095Z"/><path fill="#FA2B1C" d="M2605.16 293.002C2605.81 292.957 2606.46 292.932 2607.12 292.926C2609 292.897 2611.23 292.688 2613.02 293.355C2616.12 294.51 2619.58 297.922 2620.92 300.911C2622.02 303.338 2622.11 306.283 2621.05 308.744C2619.34 312.747 2615.44 313.956 2611.66 315.268C2609.03 315.459 2605.9 315.389 2603.35 314.703C2600.25 313.872 2597.29 311.808 2595.8 308.919C2594.63 306.638 2594.47 304.128 2595.32 301.706C2596.98 296.981 2600.92 295.052 2605.16 293.002Z"/><path d="M2448.23 419.212C2452.8 419.098 2456.07 420.338 2459.96 422.642C2463.91 424.978 2466.81 428.019 2467.84 432.601C2468.69 436.422 2467.91 440.284 2465.78 443.547C2461.17 450.617 2453.63 452.373 2445.9 453.993C2440.36 454.247 2434.58 453.387 2429.99 450.046C2426.91 447.808 2424.88 444.735 2424.3 440.956C2423.63 436.687 2424.97 432.364 2427.56 428.953C2432.7 422.179 2440.25 420.328 2448.23 419.212Z"/><path fill="#FA2B1C" d="M2448.08 427.115C2449.67 427.172 2451.44 427.55 2452.91 428.182C2455.7 429.385 2458.32 430.942 2459.52 433.839C2459.69 435.659 2459.57 436.945 2458.72 438.596C2456.45 442.972 2451.06 443.844 2446.71 445.106C2444 445.452 2441.15 445.624 2438.46 444.962C2435.81 444.31 2434.23 442.989 2432.8 440.68C2432.34 438.045 2432.77 436.165 2434.25 433.968C2437.41 429.319 2442.93 428.169 2448.08 427.115Z"/><path fill="#FFFEFE" d="M2222.24 615.419C2229.2 619.581 2225.48 646.969 2228.81 655.921C2229.95 658.952 2232.51 661.932 2234.37 664.574C2237.13 668.489 2238.3 669.843 2237.45 674.747C2235.53 677.228 2233.92 677.884 2231.06 678.898C2228.5 678.199 2225.53 677.304 2223.29 675.867C2218.17 672.575 2215.26 666.172 2214.14 660.384C2211.64 647.492 2214.99 626.427 2222.24 615.419Z"/><path d="M2404.58 668.446C2405.11 668.73 2405.65 669.047 2406.1 669.447C2415.04 677.431 2418.1 699.749 2419.13 710.94C2420.53 726.213 2420.73 743.664 2410.44 756.029C2408.39 757.184 2407.15 758.45 2404.77 758.036C2403.17 751.633 2408.46 739.483 2409.54 732.511C2412.87 710.952 2401.84 689.787 2404.58 668.446Z"/><path fill="#FFFEFE" d="M2375.2 689.57C2376.67 690.206 2377.96 691.151 2378.62 692.604C2381.88 699.751 2380.04 738.467 2377 746.029C2375.96 748.597 2375.17 748.648 2372.73 749.735C2366.8 742.397 2365.02 734.907 2364.92 725.6C2364.79 713.256 2366.2 698.734 2375.2 689.57Z"/><path d="M2104.91 621.552L2106.12 622.199L2106.34 623.914C2101.46 635.779 2096.78 648.167 2094.67 660.866C2091.4 680.555 2098.92 695.355 2084.25 712.461C2083.52 711.918 2082.28 711.284 2082 710.426C2080.45 705.616 2081.37 698.524 2081.79 693.518C2084.06 666.403 2092.93 645.626 2104.91 621.552Z"/><path fill="#FFFEFE" d="M2785.96 505.433C2788.4 505.203 2790.86 505.049 2793.31 505.131C2797.17 505.261 2803.81 506.467 2806.53 509.324C2806.37 509.57 2806.23 509.824 2806.06 510.063C2802.44 515.204 2775.78 516.8 2769.24 517.681C2764.97 518.324 2759.87 519.539 2755.59 518.867C2752.94 518.45 2750.13 517.84 2748.49 515.575L2749.33 513.84C2759.16 506.631 2774.22 506.47 2785.96 505.433Z"/><path d="M2536.56 486.577C2543.14 484.638 2550.06 488.275 2552.2 494.789C2554.33 501.304 2550.91 508.336 2544.46 510.668C2540.11 512.239 2535.26 511.322 2531.78 508.274C2528.31 505.225 2526.77 500.528 2527.76 496.014C2528.76 491.5 2532.13 487.884 2536.56 486.577Z"/><path d="M2266.59 591.399C2267.19 591.605 2267.11 591.545 2267.75 591.959C2269.9 593.357 2270.91 596.427 2271.47 598.804C2274.85 613.1 2268.13 641.064 2260.68 653.633C2259.68 654.41 2259.58 654.142 2258.38 654.031C2257.4 651.479 2257.49 649.045 2257.76 646.372C2258.66 637.125 2261.38 627.802 2262.93 618.61C2264.44 609.569 2264.87 600.429 2266.59 591.399Z"/><path fill="#FFFEFE" d="M2429.88 560.521C2430.95 561.016 2431.87 561.866 2432.81 562.578C2432.79 568.257 2425.48 575.394 2423.14 580.905C2418.94 590.769 2418.55 601.685 2413.32 611.366C2412.52 610.867 2411.69 610.315 2411.07 609.583C2408.64 606.696 2408.28 601.208 2408.52 597.628C2409.46 583.636 2419.51 569.402 2429.88 560.521Z"/><path d="M2224.39 515.618C2227.85 514.096 2231.86 514.56 2234.89 516.831C2237.91 519.103 2239.47 522.829 2238.98 526.577C2238.48 530.326 2235.99 533.515 2232.48 534.918C2227.18 537.036 2221.16 534.513 2218.95 529.247C2216.74 523.981 2219.16 517.917 2224.39 515.618Z"/><path fill="#FFFEFE" d="M2561.73 523.273C2565.49 522.748 2571.29 522.558 2574.94 523.548C2577.56 524.26 2578.99 525.31 2580.24 527.641L2578.93 529.629C2575.68 531.736 2571.35 531.844 2567.57 532.303C2563.2 532.803 2557.66 534.008 2553.33 533.229C2550.58 532.733 2548.45 531.713 2546.81 529.505L2548.02 527.452C2551.84 524.404 2557.04 524.064 2561.73 523.273Z"/><path d="M2464.96 215.449C2469.74 214.364 2474.53 217.279 2475.76 222.032C2476.99 226.784 2474.22 231.654 2469.5 233.026C2466.33 233.952 2462.9 233.075 2460.55 230.738C2458.21 228.4 2457.32 224.973 2458.24 221.792C2459.15 218.611 2461.73 216.181 2464.96 215.449Z"/><path d="M2339.43 514.437C2343.94 512.533 2349.15 514.63 2351.08 519.131C2353.02 523.633 2350.95 528.851 2346.46 530.814C2341.93 532.795 2336.66 530.709 2334.71 526.166C2332.75 521.623 2334.87 516.359 2339.43 514.437Z"/><path d="M2093.92 581.591C2098.79 580.875 2103.32 584.249 2104.03 589.122C2104.73 593.995 2101.35 598.516 2096.48 599.214C2091.62 599.911 2087.11 596.539 2086.4 591.678C2085.7 586.818 2089.06 582.304 2093.92 581.591Z"/><path d="M2398.12 417.566C2402.24 415.769 2407.03 417.675 2408.78 421.807C2410.54 425.94 2408.58 430.71 2404.44 432.425C2400.34 434.115 2395.65 432.195 2393.92 428.12C2392.19 424.046 2394.07 419.337 2398.12 417.566Z"/><path d="M2499.9 475.808C2502.99 475.838 2504.66 476.145 2507.32 477.785C2508.89 480.192 2509.07 480.531 2509.02 483.386C2507.6 486.466 2506.09 487.43 2503.25 489.075C2500.85 488.982 2498.29 488.815 2496.43 487.06C2494.59 485.317 2494.63 484.044 2494.54 481.705C2495.67 478.554 2497.21 477.565 2499.9 475.808Z"/><path d="M2515.03 326.545C2518.51 325.659 2522.09 327.601 2523.24 331.003C2524.39 334.405 2522.73 338.119 2519.42 339.529C2517.05 340.542 2514.31 340.139 2512.32 338.485C2510.34 336.831 2509.45 334.205 2510.02 331.687C2510.59 329.169 2512.53 327.183 2515.03 326.545Z"/><path fill="#FFFEFE" d="M2286.65 547.648L2287.8 548.058C2288.7 549.069 2289.19 549.285 2289.21 550.655C2289.3 556.97 2283.03 565.388 2278.84 569.725C2277.23 567.763 2276.52 567.182 2276.45 564.573C2276.27 558.094 2282.42 551.982 2286.65 547.648Z"/><path d="M2705.33 415.44C2707.27 414.256 2709.69 414.216 2711.67 415.334C2713.65 416.453 2714.86 418.555 2714.84 420.826C2714.83 423.097 2713.58 425.18 2711.59 426.269C2708.61 427.897 2704.87 426.849 2703.17 423.909C2701.47 420.969 2702.43 417.21 2705.33 415.44Z"/><path fill="#FFFEFE" d="M2044.5 711.485C2046.12 710.364 2048.23 710.23 2049.98 711.138C2051.74 712.045 2052.84 713.845 2052.86 715.818C2052.88 717.79 2051.81 719.613 2050.08 720.556C2047.59 721.911 2044.47 721.081 2042.99 718.666C2041.5 716.252 2042.17 713.097 2044.5 711.485Z"/><path d="M2253.29 663.503L2255.24 664.799L2255.48 667.189C2254.18 670.689 2251.37 673.002 2248.75 675.538L2246.56 674.477C2246.76 671.144 2251.37 666.602 2253.29 663.503Z"/><path fill="#FA2B1C" d="M1165.55 356.344C1168.51 355.739 1172.1 355.9 1175.12 355.88C1205.66 355.67 1232.37 373.259 1253.29 393.897C1260.96 379.153 1270.27 365.333 1286.4 358.938C1296.9 354.702 1308.66 354.891 1319.01 359.463C1339.23 368.216 1351.39 387.897 1359.31 407.507C1300.2 434.92 1273.8 500.362 1246.3 555.102C1234.61 578.357 1222.36 600.98 1208.93 623.286C1223.51 630.392 1241.21 633.007 1256.95 628.293C1268.55 624.818 1277.36 616.63 1283.07 606.122C1290.09 593.219 1290.57 580.815 1286.45 567.029C1308.67 572.621 1329.05 580.403 1342.73 599.86C1354.7 616.889 1355.2 636.221 1351.82 656.049C1421.5 601.67 1458.64 526.092 1495.11 447.412C1490.59 445.204 1485.86 443.456 1480.98 442.195C1467.69 438.725 1451.25 437.463 1439.06 444.806C1424.2 453.756 1416.99 476.072 1416.27 492.652C1416.01 498.498 1417.34 505.346 1415.9 510.977C1414.99 511.312 1414.42 511.498 1413.45 511.483C1405.63 511.36 1389.96 500.528 1384.35 495.11C1369.11 480.403 1360.97 459.323 1360.76 438.355C1360.53 414.981 1368.07 390.84 1384.8 374.008C1397.04 361.697 1412.69 355.862 1429.92 355.841C1461.4 355.802 1487.88 372.458 1509.46 394.006C1516.74 379.615 1525.61 366.076 1541.09 359.509C1551.74 354.995 1563.45 354.686 1574.19 359.069C1595.01 367.57 1607.31 387.662 1615.48 407.538C1588.7 420.225 1568.84 440.781 1551.58 464.463C1535.56 486.359 1524.34 511.385 1512.22 535.559C1497.27 565.363 1482.3 594.72 1465.04 623.286C1479.51 630.284 1497.27 633.083 1512.91 628.369C1524.73 624.805 1533.63 616.559 1539.38 605.796C1546.23 592.962 1546.71 580.743 1542.53 567.023C1562.36 571.733 1580.72 578.642 1594.46 594.393C1606.5 608.208 1611.07 625.206 1609.83 643.291C1608.47 663.054 1601.22 680.744 1586.08 693.883C1569.16 708.567 1548.37 713.56 1526.39 712.009C1495.11 709.802 1468.39 696.019 1447.87 672.455C1440.83 686.087 1432.17 700.169 1418.3 707.742C1408.95 712.87 1397.91 713.983 1387.72 710.828C1368.22 704.966 1356.54 687.97 1347.36 671.023C1343.28 679.116 1338.16 686.283 1331.51 692.467C1315.56 707.301 1294.99 713.23 1273.53 712.31C1240.64 710.901 1213.64 696.458 1191.6 672.579C1183.9 687.425 1174.47 702.909 1158.26 709.593C1148.04 713.804 1136.56 713.296 1126.48 708.918C1106.61 700.276 1095.13 680.717 1087.54 661.432C1161.69 611.029 1202.14 526.29 1239.04 447.442C1227.04 441.593 1212.67 438.409 1199.32 439.824C1188.95 440.923 1179.76 445.681 1173.22 453.861C1160.49 469.776 1158.57 492.443 1160.83 511.893C1150.56 509.568 1141.46 505.796 1133.14 499.251C1117.54 486.968 1107.71 467.796 1105.39 448.22C1102.59 424.599 1108.49 398.698 1123.38 379.886C1134.22 366.207 1148.27 358.35 1165.55 356.344Z"/><path fill="#FA2B1C" d="M870.698 259.45C894.089 260.385 916.367 265.451 933.305 282.72C954.27 304.096 958.396 333.74 958.073 362.351C978 355.16 997.899 350.932 1019.19 352.511C1030.88 353.377 1043.47 356.38 1051.35 365.747C1056.47 371.849 1058.64 379.292 1058.66 387.165C1058.71 406.406 1051.72 427.219 1047.54 445.92C1040.95 475.331 1034.54 504.927 1031.72 534.98C1029.97 553.559 1027.66 586.874 1040.69 602.198C1043.96 606.048 1048.95 609.515 1054.13 609.896C1064.66 610.673 1074.38 603.335 1082 596.933C1089.9 618.461 1091.05 640.606 1084.7 662.713C1079.81 679.786 1070 696.929 1053.93 705.602C1038.33 714.024 1015.65 714.351 998.902 709.291C936.405 690.412 968.932 592.849 977.328 548.477C981.409 527.777 983.447 506.728 983.416 485.63C983.024 448.205 972.64 416.847 955.009 384.276C947.901 416.376 931.872 444.478 908.354 467.326C871.898 503.094 816.45 517.228 766.909 519.083C766.366 522.618 765.895 526.163 765.497 529.718C763.526 548.252 763.635 582.069 776.224 597.21C779.504 601.154 783.897 603.712 789.072 604.038C799.24 604.679 809.26 597.732 816.595 591.334C823.605 611.388 825.31 632.914 821.545 653.821C817.949 672.834 808.724 692.274 792.201 703.282C777.43 713.122 756.985 714.198 739.993 710.778C666.868 696.064 703.406 564.933 710.441 515.199C715.675 478.197 720.853 438.271 719.643 400.829C718.178 355.502 707.134 314.034 681.901 276.058C695.198 265.141 709.508 259.867 726.75 259.379C740.895 258.978 755.521 261.858 766.056 272.031C777.357 282.944 778.943 297.043 779.204 311.829C782.745 305.373 786.822 299.389 791.761 293.923C812.036 271.488 841.072 260.857 870.698 259.45ZM810.769 454.268C834.617 443.885 855.097 429.436 864.898 404.271C866.606 399.885 868.103 394.526 866.212 389.95C865.409 387.964 863.815 386.404 861.812 385.643C858.688 384.468 854.531 385.002 851.273 385.173C833.611 389.17 823.301 400.528 813.977 415.334C805.515 428.769 800.425 443.435 796.48 458.731L810.769 454.268Z"/><path d="M845.417 367.249C854.242 366.351 863.52 365.758 871.819 369.528C877.35 372.04 881.417 376.329 883.522 382.039C887.71 393.395 884.334 406.512 879.356 417.082C865.184 447.176 839.816 463.305 809.449 474.18C797.767 477.447 786.023 479 773.988 480.174C777.238 457.231 782.403 433.946 793.568 413.439C805.725 391.111 820.639 374.569 845.417 367.249ZM810.769 454.268C834.617 443.885 855.097 429.436 864.898 404.271C866.606 399.885 868.103 394.526 866.212 389.95C865.409 387.964 863.815 386.404 861.812 385.643C858.688 384.468 854.531 385.002 851.273 385.173C833.611 389.17 823.301 400.528 813.977 415.334C805.515 428.769 800.425 443.435 796.48 458.731L810.769 454.268Z"/><path fill="#FA2B1C" d="M1707.44 352.241C1714.7 351.524 1722.34 351.683 1729.58 352.503C1742.83 354.004 1757.2 358.212 1767.26 367.315C1804.84 401.302 1797.26 497.313 1797.86 545.558C1798.07 562.241 1797.06 588.54 1808.22 602.151C1811.79 606.505 1816.75 608.974 1822.34 609.479C1832.77 610.423 1841.69 603.217 1849.31 597.061C1849.5 597.536 1849.7 598.01 1849.87 598.491C1859.62 625.071 1858.34 657.473 1846.11 683.117C1840.14 695.624 1830.79 705.259 1817.46 709.845C1805.38 713.997 1790.64 714.268 1779.09 708.536C1764.9 701.493 1757.4 688.347 1752.53 673.95C1751.2 667.694 1750.58 661.178 1749.74 654.835C1745.69 664.619 1741.69 674.376 1735.91 683.308C1727.1 696.944 1714.88 707.964 1698.54 711.348C1683.66 714.429 1667.52 711.586 1654.86 703.119C1628.12 685.238 1616.51 646.414 1610.75 616.632C1597.97 550.585 1608.2 451.151 1646.33 394.971C1661.89 372.053 1680.08 357.529 1707.44 352.241ZM1673.63 590.871C1700.51 578.197 1720.56 546.386 1730.36 519.268C1733.97 509.285 1740.18 489.766 1735.26 479.795C1734.07 477.383 1732.7 475.75 1730.39 474.336C1727.96 473.94 1725.93 473.883 1723.48 474.086C1701.22 481.667 1683.92 506.805 1673.99 527.118C1667.46 540.47 1656.46 569.435 1661.6 584.185C1662.31 586.234 1664 589.394 1666.04 590.351C1668.51 591.511 1671 591.108 1673.63 590.871Z"/><path d="M1723.53 455.4C1729.58 454.983 1735.47 455.545 1740.86 458.523C1747.21 462.035 1750.94 467.518 1752.87 474.433C1759.9 499.599 1748.01 530.076 1735.79 551.702C1722.09 575.937 1701.72 601.754 1673.84 609.51C1667.08 610.241 1660.62 609.57 1654.76 605.899C1648.71 602.104 1645.44 595.941 1643.87 589.134C1637.43 561.238 1651.14 527.094 1665.63 503.842C1679.47 481.66 1697.27 461.479 1723.53 455.4ZM1673.63 590.871C1700.51 578.197 1720.56 546.386 1730.36 519.268C1733.97 509.285 1740.18 489.766 1735.26 479.795C1734.07 477.383 1732.7 475.75 1730.39 474.336C1727.96 473.94 1725.93 473.883 1723.48 474.086C1701.22 481.667 1683.92 506.805 1673.99 527.118C1667.46 540.47 1656.46 569.435 1661.6 584.185C1662.31 586.234 1664 589.394 1666.04 590.351C1668.51 591.511 1671 591.108 1673.63 590.871Z"/><path fill="#FEAB3E" d="M2498.61 186.021C2488.85 177.347 2479.82 161.12 2487.27 148.715C2499 129.162 2524.96 120.199 2546.82 124.613C2553.4 125.942 2564.3 126.888 2567.27 134.139C2567.72 135.226 2565.61 137.716 2564.88 138.794C2563.3 142.867 2561.89 146.497 2560.59 150.694C2563.74 148.175 2569.49 143.234 2572.87 141.634C2593.21 131.194 2617.1 130.72 2638.65 137.637C2640.99 138.397 2643.32 139.206 2645.62 140.065L2638.12 145.69C2632.91 150.39 2630.94 153.506 2626.93 159.223C2634.24 155.897 2638.14 153.663 2645 149.424C2655.67 144.039 2655.82 145.767 2665.35 152.148L2658.87 157.6C2654.23 162.898 2652.63 164.994 2651 171.843L2651.84 173.347C2654.01 172.59 2654.67 171.251 2656.08 169.378C2678.69 146.947 2715.21 162.639 2738.34 174.934C2734.66 175.631 2728.32 176.649 2724.98 177.765C2718.46 179.636 2705.73 183.276 2707.61 191.743L2708.99 192.732C2712.98 190.882 2713.14 189.781 2716.33 187.406C2720.8 184.073 2730.14 183.321 2735.61 183.081C2767.07 184.798 2780.65 200.347 2787.54 230.548C2785 232.113 2783.97 232.304 2781.19 233.072C2772.84 236.568 2768.29 239.276 2761.26 245.23C2767.04 243.446 2773.81 241.093 2779.72 240.238C2808.02 237.874 2826.57 245.173 2850.83 259.363C2845.53 259.16 2839.74 258.817 2834.47 258.881C2823 260.869 2814.42 262.557 2803.45 266.469L2802.65 267.644C2810.87 270.922 2836.21 265.155 2845.29 267.487C2859.15 269.86 2882.36 284.213 2890.13 296.628C2901.81 315.3 2905.68 322.007 2903.83 344.052L2903.07 345.077C2900.34 344.598 2898.24 344.24 2895.55 343.467C2880.59 341.925 2873.66 342.31 2859.26 346.379C2900.73 359.304 2931.68 365.5 2955.21 404.742C2934.14 395.146 2916.83 389.283 2893.27 390.919C2888.3 391.264 2879.51 391.369 2876.41 394.907C2881.77 398.926 2895.67 395.97 2902.42 397.304C2949.84 406.675 2970.72 415.474 2976.05 466.214C2967.46 453.743 2958.67 444.981 2944.66 438.862C2895.66 417.473 2858.55 441.822 2842.37 489.487C2829.78 479.908 2826.28 476.012 2816.09 464.122C2816.48 455.413 2814.51 441.177 2815.91 433.403C2818.39 419.719 2822.55 412.691 2823.65 398.053C2811.21 413.082 2804.99 429.378 2804.56 448.795C2784.47 420.187 2785.29 405.766 2801.9 376.234C2792.34 383.261 2785.93 388.955 2779.3 398.704L2767.64 394.427C2754.23 347.833 2784.04 338.814 2806.4 306.917C2776.21 324.891 2746.67 352.266 2755.53 390.746C2729.23 374.371 2705.9 337.076 2730.06 308.463C2733.82 304.014 2738.09 300.969 2742.73 297.532C2724.45 303.106 2713.81 309.857 2708.43 328.765C2696.56 323.001 2689.33 323.799 2675.34 315.528C2670.98 283.607 2688.32 261.505 2709.38 240.572C2680.05 252.645 2670.2 279.699 2666.77 309.344C2637.34 283.39 2633.65 260.475 2642.89 223.569C2633.34 232.784 2628.52 241.455 2626.42 254.583C2620.52 255.786 2616.28 255.921 2610.31 256.247C2598.18 235.745 2604.66 217.297 2606.23 194.775C2605.49 195.916 2604.78 197.068 2604.08 198.23C2593.24 216.197 2592.8 233.525 2597.79 253.333C2576.31 245.65 2555.23 225.962 2552.46 202.496C2551.2 191.804 2552.88 185.101 2555.81 175.081C2548.83 184.085 2546.24 186.973 2543.54 198.245C2529.86 202.757 2529.82 182.517 2530.4 174.271C2531.14 163.86 2534.25 155.391 2537.77 145.703C2528.66 154.756 2521.62 167.079 2522.87 180.543C2523.38 186.02 2525.41 190.23 2524.55 195.833L2523.1 196.578C2517.36 196.035 2510.56 194.138 2505.78 190.817C2503.34 189.533 2500.88 187.64 2498.61 186.021Z"/><path fill="#FFFEFE" d="M2498.61 186.021C2488.85 177.347 2479.82 161.12 2487.27 148.715C2499 129.162 2524.96 120.199 2546.82 124.613C2553.4 125.942 2564.3 126.888 2567.27 134.139C2567.72 135.226 2565.61 137.716 2564.88 138.794C2543.92 126.299 2518.7 127.26 2505.32 150.172C2498.76 161.401 2499.05 173.47 2498.61 186.021Z"/><path fill="#FFFEFE" d="M2845.29 267.487C2859.15 269.86 2882.36 284.213 2890.13 296.628C2901.81 315.3 2905.68 322.007 2903.83 344.052L2903.07 345.077C2900.34 344.598 2898.24 344.24 2895.55 343.467C2889.81 330.213 2890.47 321.965 2881.74 307.588C2875.69 297.629 2847.63 273.368 2845.29 267.487Z"/><path fill="#FFFEFE" d="M2735.61 183.081C2767.07 184.798 2780.65 200.347 2787.54 230.548C2785 232.113 2783.97 232.304 2781.19 233.072C2771.57 222.999 2766.11 209.586 2755.75 200.124C2749.25 194.193 2742.29 188.799 2735.61 183.081Z"/><path fill="#FFFEFE" d="M2656.08 169.378C2678.69 146.947 2715.21 162.639 2738.34 174.934C2734.66 175.631 2728.32 176.649 2724.98 177.765C2696.75 163.365 2685.05 165.244 2656.08 169.378Z"/><path fill="#FFFEFE" d="M2779.72 240.238C2808.02 237.874 2826.57 245.173 2850.83 259.363C2845.53 259.16 2839.74 258.817 2834.47 258.881C2814.84 243.104 2789.56 246.869 2779.72 240.238Z"/><path fill="#FFFEFE" d="M2572.87 141.634C2593.21 131.194 2617.1 130.72 2638.65 137.637C2640.99 138.397 2643.32 139.206 2645.62 140.065L2638.12 145.69C2622.59 139.515 2606.36 134.827 2589.51 137.285C2583.84 138.112 2578.95 141.2 2572.87 141.634Z"/><path d="M2520.59 139.863C2520.1 142.423 2511.14 149.958 2508.04 157.571C2504 167.484 2507.33 188.261 2505.78 190.817C2498.32 173.913 2502.13 147.628 2520.59 139.863Z"/><path fill="#FFFEFE" d="M2645 149.424C2655.67 144.039 2655.82 145.767 2665.35 152.148L2658.87 157.6C2655.11 155.066 2649.06 151.777 2645 149.424Z"/><path fill="#FFFEFE" d="M2778.28 252.861C2779.65 252.825 2780.83 253.135 2782.16 253.423L2783.08 255.023C2781.65 260.049 2772.91 263.738 2769.17 267.828C2759.7 278.207 2753.7 292.136 2745.32 303.509C2744.04 303.953 2743.41 303.782 2742.18 303.391C2741.52 303.183 2741.72 303.332 2741.35 302.439C2739.87 298.952 2743.68 288.694 2745.19 285.081C2751.75 269.295 2762.66 259.471 2778.28 252.861Z"/><path fill="#FFFEFE" d="M2695.95 220.846C2697.51 221.318 2696.76 220.927 2697.98 222.492C2696.46 225.878 2680.11 235.945 2673.88 248.957C2669.38 258.377 2668 284.658 2666.42 286.865L2663.99 286.721C2663.71 286.232 2663.44 285.737 2663.18 285.235C2649.5 258.844 2673.45 232.083 2695.95 220.846Z"/><path fill="#FFFEFE" d="M2894.15 403.114C2901.58 402.318 2911.07 401.812 2917.29 406.631L2917.33 408.365C2910.73 414.319 2897.94 412.972 2889.67 416.092L2888.75 416.45C2886.97 417.489 2885.15 418.457 2883.29 419.352C2879.94 420.938 2876.06 422.759 2872.35 421.26C2870.91 420.678 2870.85 419.828 2870.23 418.48C2870.44 417.244 2870.72 415.986 2871.39 414.905C2876.06 407.301 2886.14 405.172 2894.15 403.114Z"/><path d="M2858.71 312.369C2864.31 312.037 2871.88 312.065 2876.98 314.659L2876.99 316.031C2871.06 317.914 2863.64 317.757 2857.4 318.576C2838.45 321.065 2824.66 329.765 2810.04 341.631C2807.2 344.429 2803.7 348.813 2799.96 350.127C2800.93 348.399 2802.05 346.758 2803.3 345.223C2817.37 327.749 2836.09 314.799 2858.71 312.369Z"/><path d="M2590.55 154.725C2591.96 162.024 2576.47 201.254 2580.06 212.819C2580.4 213.914 2579.87 219.042 2579.52 220.344L2576.62 221.553C2570.17 201.338 2578.88 171.639 2590.55 154.725Z"/><path d="M2731.13 245.719L2732.34 246.421C2729.91 253.12 2721.08 261.547 2716.5 267.236C2705.57 280.816 2697.86 294.535 2692.88 311.239L2691.77 311.037C2691.57 310.05 2691.42 309.033 2691.53 308.024C2694.24 281.919 2712.13 262.113 2731.13 245.719Z"/><path d="M2690.5 179.707C2691.91 179.965 2691.23 179.754 2692.46 180.766C2671.62 193.857 2665.99 209.542 2660.22 232.764L2658.28 232.873L2657.07 231.611C2657.11 227.005 2657.76 222.425 2658.99 217.988C2663.81 200.304 2674.87 188.557 2690.5 179.707Z"/><path fill="#FFFEFE" d="M2817.12 312.772C2819.06 313.485 2818.91 313.632 2819.76 315.401C2818.24 319.761 2800.92 335.377 2796.49 340.417C2795.18 340.052 2794.42 339.235 2793.46 338.333C2793.26 337.389 2793.12 336.393 2793.3 335.431C2794.98 326.561 2810.24 317.347 2817.12 312.772Z"/><path fill="#FFFEFE" d="M2633.11 171.398L2635.26 172.439L2635.89 174.472C2634.18 181.971 2631.73 194.56 2626.12 199.315C2624.73 198.486 2623.85 197.482 2622.71 196.343C2619.49 186.976 2626.38 177.301 2633.11 171.398Z"/><path fill="#FFFEFE" d="M2756.34 305.751C2757.1 305.777 2757.9 305.762 2758.62 306.045C2761.24 307.077 2761.75 307.89 2762.65 310.335C2761.1 315.585 2755.59 319.881 2751.78 323.671C2749.59 324.105 2748.42 323.686 2746.37 322.891C2745.39 321.193 2745.15 320.33 2745.54 318.335C2746.62 312.799 2752.11 308.826 2756.34 305.751Z"/><path fill="#FFFEFE" d="M2841.35 355.986C2842.02 355.864 2842.7 355.767 2843.38 355.695C2846 355.426 2850.28 355.634 2852.33 357.277L2852.15 358.877C2848.71 362.614 2844.87 363.836 2840.53 366.279C2839.38 367.182 2838.22 368.153 2836.98 368.925C2834.81 370.279 2834.05 370.379 2831.65 369.889L2831.01 367.779C2833.03 361.225 2835.56 359.539 2841.35 355.986Z"/><path d="M2827.61 292.281C2830.83 291.947 2834.26 291.585 2837.48 291.953C2840.09 292.25 2842.76 293.545 2844.43 295.575L2843.75 297.428C2840.74 299.483 2837.28 299.18 2833.78 299.238C2829.22 300.019 2825.23 301.337 2820.83 299.416L2820.49 297.485C2822.54 294.94 2824.77 293.761 2827.61 292.281Z"/><path fill="#FFFEFE" d="M2895.87 380.212C2900.39 379.861 2906.68 379.281 2910.46 382.379C2911.65 383.357 2911.47 383.963 2911.64 385.408L2909.89 387.539C2905.33 386.979 2896.67 387.082 2893.25 384.351L2893.37 382.409L2895.87 380.212Z"/><path d="M2694.1 202.776L2694.94 203.161C2697.38 208.326 2688.52 212.943 2684.86 215.048L2683.59 214.034C2684.73 208.864 2689.78 205.91 2694.1 202.776Z"/><path fill="#FFFEFE" d="M2641.2 188.23C2644.55 189.111 2644.77 189.125 2646.42 191.976C2646.11 195.662 2644.82 196.827 2642.51 199.731C2640.06 198.727 2639.75 198.585 2638.32 196.367C2637.8 193.229 2639.56 191.035 2641.2 188.23Z"/><path d="M2865.43 408.528C2866.16 409.226 2867.62 410.216 2867.69 411.208C2868.02 415.675 2864.94 419.077 2862.26 422.308C2860.9 421.466 2860.84 420.96 2860.19 419.539C2860.83 415.334 2863.2 412.04 2865.43 408.528Z"/><path fill="#FEAB3E" d="M2903.57 442.175C2921.95 441.491 2940.3 446.929 2954.78 458.525C2962.23 464.495 2968.82 473.196 2969.77 482.976C2971.84 504.361 2954.19 532.404 2941.29 548.127C2924.07 569.103 2895.83 585.431 2870.21 593.702C2857.09 597.941 2841.82 599.177 2828.15 601.241C2802.47 605.106 2776.76 608.822 2751.04 612.388C2665.53 624.024 2579.67 636.043 2493.76 644.289C2473.8 646.523 2453.65 647.985 2433.61 649.318C2434.05 632.063 2438.18 612.823 2447.98 598.354C2480.07 551.002 2568.65 558.931 2619.35 554.949C2657.28 551.969 2694.7 545.114 2732.71 542.353C2753.31 540.858 2774.05 540.602 2794.68 539.911C2806.61 539.511 2819.21 539.612 2830.94 537.36C2888.14 526.376 2844.75 497.774 2864.19 469.47C2874.15 454.977 2885.98 445.526 2903.57 442.175Z"/><path d="M2553.42 620.458C2558.3 620.249 2563.25 621.055 2568.1 621.607C2544.95 631.72 2509.02 637.019 2483.8 633.874C2479.5 633.611 2475.07 631.861 2470.96 630.626C2484.28 627.883 2498.05 627.271 2511.57 625.809C2525.53 624.299 2539.47 622.175 2553.42 620.458Z"/><path fill="#FFFEFE" d="M2781.82 583.523C2785.24 581.924 2789.26 582.332 2792.29 584.586C2795.32 586.839 2796.87 590.575 2796.33 594.312C2795.78 598.049 2793.23 601.185 2789.68 602.476C2784.51 604.355 2778.78 601.836 2776.68 596.76C2774.57 591.684 2776.84 585.85 2781.82 583.523Z"/><path d="M2518.11 581.473C2523.02 579.94 2528.27 582.567 2529.98 587.42C2531.7 592.272 2529.27 597.613 2524.49 599.509C2521.23 600.8 2517.52 600.207 2514.83 597.963C2512.14 595.718 2510.89 592.182 2511.57 588.744C2512.25 585.307 2514.76 582.517 2518.11 581.473Z"/><path d="M2874.1 540.584C2878.12 538.501 2883.06 540.092 2885.1 544.125C2887.15 548.158 2885.51 553.086 2881.46 555.093C2877.46 557.075 2872.61 555.464 2870.59 551.484C2868.58 547.504 2870.14 542.64 2874.1 540.584Z"/><path fill="#FFFEFE" d="M2837.16 569.503C2840.96 567.798 2845.43 569.373 2847.33 573.084C2849.22 576.796 2847.87 581.341 2844.26 583.419C2841.76 584.859 2838.66 584.802 2836.21 583.271C2833.77 581.741 2832.36 578.985 2832.56 576.104C2832.75 573.223 2834.52 570.685 2837.16 569.503Z"/><path d="M2718.95 578.938C2721.56 578.675 2723.7 578.571 2726.18 579.561C2729.25 580.79 2731.84 582.32 2733.15 585.492C2732.79 588.295 2732.58 588.601 2730.71 590.737C2726.48 591.623 2722.21 592.998 2718.31 590.296C2716.77 589.225 2716.04 588.06 2715.84 586.15C2715.55 583.324 2717.36 581.049 2718.95 578.938Z"/><path fill="#FFFEFE" d="M2893.1 474.565C2896.41 472.653 2900.64 473.728 2902.64 476.99C2904.64 480.251 2903.68 484.511 2900.47 486.597C2898.32 487.996 2895.58 488.117 2893.31 486.913C2891.05 485.708 2889.61 483.368 2889.57 480.802C2889.52 478.236 2890.87 475.847 2893.1 474.565Z"/><path d="M2902.54 502.551C2905.69 501.851 2908.83 503.783 2909.62 506.912C2910.41 510.042 2908.58 513.235 2905.47 514.122C2903.38 514.72 2901.13 514.133 2899.59 512.589C2898.06 511.045 2897.49 508.789 2898.1 506.7C2898.71 504.612 2900.41 503.022 2902.54 502.551Z"/><path d="M2940.54 497.468C2942.54 496.455 2944.94 496.668 2946.73 498.017C2948.52 499.367 2949.38 501.618 2948.96 503.82C2948.53 506.021 2946.89 507.789 2944.73 508.376C2941.82 509.164 2938.79 507.626 2937.71 504.815C2936.63 502.004 2937.85 498.83 2940.54 497.468Z"/><path d="M2756.38 558.569C2759.31 557.944 2762.23 559.726 2763 562.625C2763.78 565.524 2762.16 568.526 2759.3 569.456C2757.32 570.102 2755.14 569.6 2753.64 568.152C2752.13 566.703 2751.55 564.543 2752.13 562.537C2752.7 560.53 2754.34 559.004 2756.38 558.569Z"/><path d="M2587.76 614.852C2589.13 614.864 2590.66 614.816 2592.01 615.116C2594.43 615.658 2595.36 616.547 2596.64 618.492C2596.15 621.286 2595.35 621.945 2593.51 623.995L2593.03 623.904C2590.02 623.315 2585.74 623.188 2583.73 620.663C2584.31 617.656 2585.6 616.961 2587.76 614.852Z"/><path d="M2809.4 562.572C2811.8 561.778 2814.41 562.953 2815.41 565.276C2816.41 567.6 2815.46 570.3 2813.23 571.494C2811.61 572.362 2809.63 572.242 2808.13 571.183C2806.62 570.123 2805.84 568.306 2806.11 566.485C2806.38 564.663 2807.65 563.149 2809.4 562.572Z"/><path d="M2662.01 595.572C2663.61 594.879 2665.46 595.097 2666.85 596.145C2668.24 597.192 2668.96 598.907 2668.74 600.634C2668.51 602.362 2667.38 603.836 2665.77 604.495C2663.31 605.499 2660.5 604.338 2659.47 601.893C2658.44 599.447 2659.58 596.628 2662.01 595.572Z"/><path d="M2618.01 565.44C2620.14 563.922 2623.1 564.416 2624.62 566.544C2626.14 568.672 2625.65 571.63 2623.53 573.155C2621.4 574.683 2618.43 574.192 2616.91 572.059C2615.38 569.927 2615.88 566.962 2618.01 565.44Z"/><path fill="#FA2B1C" d="M1951.6 352.4C1970.97 351.501 1990.68 355.566 2006.28 367.592C2024.11 381.335 2033.74 402.61 2036.55 424.559C2039.25 445.685 2035.15 469.18 2021.76 486.25C2012.52 498.037 2001.33 502.449 1986.97 504.202C1989.98 494.29 1991.64 483.611 1988.52 473.498C1986.5 466.925 1982.15 461.291 1975.98 458.128C1968.35 454.214 1958.55 454.39 1950.58 457.141C1943.2 459.686 1936.87 464.764 1933.49 471.871C1929.78 479.675 1930.24 488.422 1933.27 496.363C1940.02 514.089 1968.83 520.442 1985.05 527.727C2008.78 538.39 2021.91 551.248 2031.16 575.7C2000.49 615.086 2017.31 634.119 2015.35 678.592C2012.91 682.084 2010.25 685.522 2007.34 688.638C1992.01 705.059 1973.9 711.58 1951.75 712.362C1933.12 713.674 1912.18 708.401 1897.36 696.877C1879 682.607 1869.65 660.965 1866.9 638.331C1864.34 617.261 1867.91 596.421 1881.35 579.451C1890.74 567.592 1902.59 562.581 1917.25 560.857C1915.7 566.725 1914.48 572.799 1914.51 578.895C1914.56 587.506 1916.77 596.756 1923.13 602.951C1928.28 607.972 1935.27 609.848 1942.33 609.693C1950.72 609.509 1959.12 606.615 1965.01 600.46C1972.65 592.476 1973.15 583.756 1972.91 573.383C1959.74 547.936 1920.01 545.892 1895.84 525.131C1877.36 509.247 1870.28 486.152 1868.61 462.523C1866.47 432.451 1872.72 402.965 1892.98 379.802C1908.44 362.126 1928.52 353.991 1951.6 352.4Z"/><path fill="#FA2B1C" d="M1002.99 205.428C1058.15 200.751 1095.05 246.034 1064.52 297.337C1055.45 312.572 1034.06 317.572 1017.21 320.006C996.218 320.103 977.871 319.049 960.826 305.208C938.174 286.814 935.968 248.678 954.607 226.78C967.294 211.874 984.235 207.081 1002.99 205.428Z"/><path fill="#FEAB3E" d="M2322.36 568.393C2322.94 568.316 2323.48 568.249 2324.07 568.248C2332.72 568.23 2343.6 569.141 2350.02 575.516C2364.03 589.428 2349.51 617.598 2345.77 633.759C2344.11 640.942 2343.87 647.598 2343.92 654.934C2336.09 655.428 2328.27 655.825 2320.43 656.124C2309.52 656.952 2298.6 657.635 2287.67 658.172C2289.25 631.303 2285.51 602.513 2296.43 577.238C2304.54 571.465 2312.67 569.406 2322.36 568.393Z"/><path fill="#FEAB3E" d="M2165.47 580.959C2173.28 580.9 2180.66 583.133 2186.65 588.317C2207.71 606.534 2197.12 639.377 2199.18 663.516C2183.16 664.019 2167.12 664.098 2151.1 663.753C2139.55 663.144 2128.23 663.331 2116.71 664.082C2122.68 645.556 2131.34 626.403 2139.65 608.772C2145.32 596.739 2152.43 585.647 2165.47 580.959Z"/><path d="M201.956 222.429C217.395 221.412 232.901 222.379 248.095 225.304C293.186 233.834 327.049 257.401 352.687 294.991C354.989 291.279 357.299 287.548 359.844 283.997C383.772 250.615 422.703 231.305 462.577 224.839C509.913 217.162 562.315 224.518 601.797 253.106C630.217 273.684 646.645 303.337 652.085 337.748C663.106 407.456 633.273 463.928 593.753 518.228C594.352 518.495 594.947 518.771 595.538 519.057C683.346 561.565 680.146 709.397 587.741 744.68C562.253 754.412 527.831 750.151 503.463 738.079C497.93 735.458 490.048 729.042 485.437 725.077C479.257 731.154 472.203 736.273 464.51 740.264C443.621 750.899 415.716 752.058 393.674 744.628C367.626 735.848 351.819 719.325 339.693 695.399C325.058 713.342 306.284 727.462 284.986 736.545C240.756 755.254 187.361 753.558 141.278 735.912C51.209 701.424 20.6981 575.109 98.884 512.201C107.017 505.657 117.204 501.317 127.012 497.284C126.412 485.204 126.438 476.981 128.425 465.068C86.4992 450.45 57.8296 415.03 54.8102 370.371C52.359 335.127 63.9591 300.346 87.0754 273.63C118.001 238.392 156.236 225.381 201.956 222.429ZM454.923 489.243C416.6 477.331 387.107 471.99 359.947 439.894C352.549 456.081 343.734 470.849 331.126 483.561C351.077 505.616 367.48 533.944 370.802 564.07C374.18 584.605 374.178 606.937 369.572 627.308C413.195 575.412 477.09 499.812 499.991 436.543C502.786 428.824 506.398 418.856 505.585 410.557C505.269 407.339 504.082 403.855 501.406 401.839C496.625 398.236 487.415 399.738 481.756 400.134C473.498 402.47 468.237 406.223 463.935 413.802C453.276 432.581 455.662 467.456 454.923 489.243ZM212.161 424.896C216.978 424.212 222.915 424.113 226.231 420.076C227.335 418.732 227.672 417.37 227.882 415.685C227 411.065 224.469 408.208 220.618 405.603C212.403 400.047 203.669 399.379 194.097 400.17C187.529 402.596 183.171 405.013 180.125 411.583C178.65 414.763 177.602 418.109 176.602 421.462C188.447 423.857 200.064 425.171 212.161 424.896ZM180.326 549.408C186.069 559.936 192.924 570.984 205.224 574.538C207.649 575.238 210.258 575.521 212.761 575.817C216.284 575.938 220.303 575.983 223.091 573.445C225.158 571.565 226.087 568.556 226.038 565.815C225.95 560.915 223.41 556.15 219.848 552.892C213.945 547.494 206.431 546.895 198.767 547.25C197.979 547.287 197.882 547.318 197.208 547.427C191.571 547.997 185.942 548.657 180.326 549.408Z"/><path fill="#FFD939" d="M213.3 256.476C244.058 256.897 273.34 264.936 297.802 284.126C321.028 302.346 333.932 328.094 337.436 357.165C342.274 397.318 329.775 444.463 295.292 468.577C290.483 471.94 273.762 478.966 271.881 481.351C271.776 481.979 271.259 483.758 271.391 484.285C271.843 486.085 292.014 495.718 295.197 498.037C311.499 509.913 323.045 526.403 330.235 545.124C343.022 578.417 341.252 618.404 326.656 650.846C314.8 677.198 293.567 696.773 266.576 706.942C231.126 720.298 185.28 718.38 150.895 702.615C126.563 691.46 104.397 670.168 95.0386 644.796C86.0105 620.319 86.3942 591.043 97.5122 567.321C106.304 548.563 120.347 536.387 139.732 529.442C141.999 532.242 141.894 539.296 142.578 542.911C146.555 563.941 157.487 583.301 174.375 596.601C187.652 607.056 204.686 612.459 221.584 610.249C233.208 608.728 244.075 602.989 251.233 593.592C259.086 583.282 261.25 570.347 259.576 557.728C257.783 544.211 251.366 532.401 240.324 524.199C219.484 508.721 192.898 513.01 169.096 516.439C166.156 512.113 164.025 508.2 162.689 503.09C158.323 486.789 160.612 469.421 169.053 454.808C184.707 459.164 202.297 460.651 218.453 458.831C231.746 457.333 245.653 452.544 254.098 441.617C260.97 432.724 263.121 420.781 261.667 409.81C260.024 397.409 253.511 386.801 243.571 379.291C229.517 368.673 209.601 363.178 192.125 365.668C177.353 367.773 163.664 374.985 154.629 387.061C144.049 401.203 141.932 416.821 144.42 433.878C132.404 429.966 121.788 425.233 112.337 416.641C97.9331 403.546 89.9124 384.996 89.0045 365.666C87.7884 339.011 97.2845 312.977 115.377 293.365C141.61 264.909 176.156 258.002 213.3 256.476Z"/><path fill="#FFD939" d="M479.938 257.41C492.12 255.8 505.601 256.353 517.796 257.707C547.687 261.025 579.846 273.174 599.047 297.353C612.021 313.691 617.747 333.953 619.482 354.475C626.236 434.387 569.455 485.658 532.183 548.255C525.318 559.786 517.271 573.386 515.918 586.996C515.395 592.264 516.24 597.959 519.834 602.065C522.77 605.42 527.13 607.058 531.514 607.243C538.833 607.552 545.764 603.945 551 599.063C565.123 585.892 570.097 564.988 570.819 546.445C579.995 549.41 588.221 553.464 595.606 559.726C613.376 574.793 622.769 597.814 624.658 620.662C626.75 645.958 619.618 673.91 602.978 693.454C591.503 706.931 576.385 714 558.828 715.289C541.568 716.556 523.65 712.881 510.305 701.314C488.853 682.719 486.345 652.015 484.406 625.63C480.185 641.012 479.398 657.117 474.973 672.5C474.321 675.117 473.51 677.71 472.698 680.282C468.704 692.936 461.022 703.392 449.025 709.508C435.719 716.292 418.818 716.675 404.732 712.132C387.42 706.548 377.745 694.42 369.838 678.935C390.134 657.782 408.866 634.365 427.22 611.498C465.268 564.093 533.529 479.401 539.56 417.594C540.839 404.481 537.963 391.046 529.298 380.79C520.716 370.633 508.519 366 495.539 365.034C478.618 363.775 460.821 368.191 447.859 379.479C429.309 395.633 423.99 419.408 422.422 442.874C413.472 440.385 404.745 435.638 397.629 429.687C381.271 416.007 372.514 394.497 370.655 373.613C368.277 346.898 375.214 318.246 392.675 297.486C413.559 272.657 448.455 260.231 479.938 257.41Z"/></svg>