<?xml version="1.0" encoding="utf-8" ?><svg xmlns="http://www.w3.org/2000/svg" xmlns:xlink="http://www.w3.org/1999/xlink" width="3000" height="1000" viewBox="0 0 3000 1000"><path d="M1029.12 133.544C1081.38 131.672 1107.17 130.586 1139.94 177.13C1156.88 144.527 1174.91 133.695 1211.68 137.14L1392.49 154.351C1411.61 156.149 1472.29 160.611 1488.11 165.595C1503.42 170.515 1516.99 179.751 1527.17 192.194C1555.7 226.859 1561.09 288.144 1556.76 331.462L1403.77 521.866C1426.21 525.366 1460.43 524.036 1479.84 533.282L1596.31 309.864L1624.46 255.944C1631.38 242.685 1637.85 226.688 1647.77 215.482C1654.3 208.099 1666.93 203.562 1676.59 203.029C1711.02 201.132 1850.71 234.619 1884.24 248.874C1889.92 251.288 1894.8 254.285 1899.36 258.503C1908.16 266.647 1913.13 277.247 1913.62 289.227C1915.22 328.103 1915.53 367.134 1916.48 406.039L1922.14 641.592L1924.91 750.729C1925.39 768.529 1926.3 787.827 1925.66 805.63C1925.39 813.185 1919.75 823.153 1914.61 828.813C1905.62 838.729 1890.24 844.901 1876.11 844.225C1832.36 842.132 1780.71 833.531 1740 817.106C1731.84 813.81 1718.21 804.162 1712.13 798.215C1691.85 778.36 1693.05 760.709 1692.53 734.687L1691.73 692.645C1675.43 689.044 1659.16 685.278 1642.94 681.347C1626.58 712.163 1618.12 748.434 1587.23 763.441C1589.33 775.721 1588.98 789.888 1579.31 799.232C1570.33 807.906 1559.73 807.07 1548.17 807.017C1546.31 812.708 1542.61 820.153 1547.41 824.762C1557.67 826.071 1567.98 809.579 1579.84 809.348C1587.99 807.724 1604.46 823.655 1601.91 831.725C1590.64 867.54 1559.87 918.597 1515.7 915.235C1501.83 914.179 1493.44 908.163 1485.4 900.208C1451.75 926.166 1407.15 920.393 1403.28 871.168C1390.37 894.015 1371.79 919.169 1341.16 915.087C1330.2 913.625 1322.61 907.228 1316.31 898.49C1292.11 919.973 1260.44 924.293 1242.4 892.517C1213 920.276 1162.27 926.16 1136.15 890.682C1131.56 895.863 1126.48 900.147 1120.88 904.134C1099.21 919.56 1063.44 920.833 1047.51 896.35C1034.71 876.673 1040.26 849.94 1044.8 828.331C1041.35 836.938 1037.6 845.418 1033.55 853.754C1019.3 882.718 997.059 911.436 965.403 921.911C947.155 927.949 925.512 928.846 908.005 920.062C894.169 913.027 883.695 900.782 878.891 886.023C868.907 855.382 883.621 819.148 915.499 808.96C908.87 785.239 911.232 767.949 921.019 745.658C924.225 739.679 926.98 735.569 930.793 729.945C904.578 730.253 821.126 736.056 800.722 730.723C783.159 737.954 730.52 743.071 708.404 745.956C707.112 749.393 705.476 753.075 704.041 756.488C714.83 751.527 728.963 747.618 738.064 758.233C749.343 771.387 743.624 791.485 738.982 806.181C737.537 810.758 734.382 816.865 734.12 821.421C745.533 799.163 749.964 766.3 774.336 754.382C786.383 748.491 806.457 751.493 811.471 765.839C817.846 784.08 809.215 801.226 802.397 817.705C829.189 796.113 854.627 823.921 832.291 857.69C815.097 883.685 811.91 912.635 772.51 915.305C765.37 935.61 754.706 957.628 737.476 971.557C713.095 991.269 670.532 990.039 650.652 964.243C639.117 949.273 637.897 933.028 640.323 914.758C613.634 916.505 599.193 909.377 589.372 883.605C572.259 910.432 530.1 910.562 521.01 876.717C506.291 897.693 489.586 914.053 464.553 921.916C445.726 927.83 422.172 928.984 404.28 919.502C390.538 912.099 380.309 899.529 375.853 884.57C371.063 867.97 372.997 850.153 381.235 834.968C388.897 821.025 398.745 813.197 413.928 808.716C413.473 807.728 413.035 806.732 412.615 805.729C392.854 758.444 424.051 711.642 468.428 693.58C466.335 684.678 464.819 675.651 463.89 666.554C459.027 619.165 462.499 565.396 520.423 559.554C513.792 521.359 510.095 477.577 504.218 438.429C502.85 551.222 449.05 622.564 343.766 661.277L357.513 718.245C360.542 730.76 366.393 751.733 366.257 764C366.122 771.26 364.071 778.355 360.312 784.568C341.47 816.397 273.965 830.677 239.068 837.789C199.227 845.908 156.938 844.651 145.564 797.271C120.359 692.278 95.2099 587.208 70.0574 482.171L47.0641 386.399C39.7613 356.202 25.743 320.167 43.4824 291.608C54.0044 274.668 70.4072 267.018 89.1152 262.448L179.771 240.904C260.158 221.637 334.794 205.108 410.896 251.446C412.358 223.27 421.106 189.763 453.153 181.216C465.591 177.899 481.485 176.718 494.406 175.034L572.785 164.839L657.809 153.672C691.651 149.108 720.541 138.522 747.97 164.016C758.867 150.796 771.611 140.993 789.39 139.905C814.261 138.384 839.392 138.348 864.328 137.754L1029.12 133.544ZM782.134 483.492L860.724 354.13L819.26 355.399C795.35 356.196 776.834 358.461 756.716 343.28C746.341 351.363 736.374 354.126 723.618 355.979L739.359 476.996C741.277 491.659 742.498 516.403 747.145 529.803C749.771 530.089 751.753 529.046 753.751 527.461C763.224 519.947 774.951 494.746 782.134 483.492ZM1163.74 766.185C1180.87 754.804 1200.99 748.568 1221.64 752.643C1234.27 755.136 1244.98 761.962 1252.22 772.662C1255.02 776.789 1256.98 781.471 1258.55 786.182C1271.61 768.645 1288.16 755.408 1310.37 752.19C1323.54 750.281 1335.94 752.211 1347.35 759.338C1347.64 759.248 1347.94 759.162 1348.24 759.068C1360.16 755.279 1366.87 747.039 1380.39 753.454C1383.86 755.1 1386.6 757.269 1389.22 760.039L1395.71 751.242C1322.13 742.47 1247.8 739.037 1174.28 729.92C1172.28 742.971 1169.44 754.255 1163.74 766.185ZM1039.64 498.185C1050.9 498.031 1062.16 497.782 1073.41 497.44C1093.12 496.791 1109.08 495.25 1126.93 505.085L1132.76 497.963L1206.21 404.58C1218.58 388.879 1230.57 372.531 1243.55 357.347C1223.39 355.643 1177.46 353.929 1160.53 347.481C1152.94 344.592 1147.3 340.367 1141.58 334.707L1039.64 498.185ZM1007.62 761.874C1004.29 765.071 1001.04 768.308 1000.72 773.174C1000.65 774.227 1000.82 774.845 1001.27 775.775C1004.68 773.771 1006.49 768.153 1007.45 764.477C1007.69 763.532 1007.84 762.84 1007.62 761.874ZM1389.76 795.747C1386.56 802.801 1382.19 810.448 1380.13 817.874L1380.87 818.007C1385 811.641 1388.72 804.813 1390.83 797.489L1389.76 795.747ZM497.228 759.914C494.915 762.347 493.091 764.329 491.873 767.499C492.329 769.671 492.29 770.067 494.203 771.413C497.4 773.662 499.508 772.393 502.64 775.671L502.788 777.137C504.128 772.341 505.535 766.772 503.875 761.93C501.728 759.758 500.993 759.897 498.021 759.89C497.757 759.889 497.493 759.906 497.228 759.914ZM1112.95 825.664C1117.66 825.477 1121.56 825.583 1125.03 821.96C1125.73 821.227 1126.36 820.419 1127.01 819.641C1130.36 815.644 1131.78 809.609 1133.42 804.716L1132.77 804.132C1126.66 808.69 1113.64 813.575 1110.99 820.407C1111.55 822.2 1112.02 824.025 1112.95 825.664ZM1489.69 790.563C1487.93 801.105 1479.34 814.918 1479.63 824.47L1480.71 824.967L1481.68 824.472C1486.82 818.389 1493.81 803.293 1492.96 795.06C1492.83 793.845 1490.52 791.598 1489.69 790.563ZM668.704 776.814C663.449 791.454 656.91 810.878 659.724 826.627C662.075 825.504 664.757 824.309 666.374 822.19C672.293 814.435 674.903 801.628 678.495 792.517C680.641 787.073 683.466 781.863 686.357 776.783L685.558 776.39C679.474 777.939 674.818 778.113 668.704 776.814Z"/><path fill="#FA2B1C" d="M1192.98 178.144C1193.77 178.075 1194.58 178.02 1195.38 178.026C1212.37 178.147 1230.11 181.038 1247.09 182.663L1349.91 192.503L1429.29 199.94C1443.24 201.236 1458.36 201.468 1471.96 204.632C1479.93 206.462 1487.17 210.617 1492.77 216.572C1514.85 239.586 1516.91 284.658 1516.32 314.883C1451.31 395.191 1385.96 475.436 1322.11 556.661C1367.72 559.005 1413.31 566.069 1458.91 569.182C1459.02 569.251 1459.13 569.319 1459.24 569.39C1461.19 570.671 1463.32 571.892 1464.97 573.557C1477.63 586.287 1475.98 614.182 1476 630.889C1494 600.02 1509.5 566.907 1526.05 535.189L1624.93 345.665L1659.38 279.491C1665.32 268.072 1670.87 255.315 1678.11 244.699C1711.4 244.938 1841.48 275.415 1871.77 289.15L1878.34 564.269L1884.12 801.822C1881.55 802.032 1878.97 802.177 1876.39 802.258C1847.14 803.082 1762.78 789.067 1742.14 769.147C1739.27 766.375 1737.04 763.097 1736.08 759.187C1733.42 748.327 1734.47 735.021 1734.22 723.846L1732.82 659.005L1619.78 633.228C1610.06 652.307 1584.25 712.971 1572.13 724.824C1570.84 723.379 1569.48 721.992 1568.07 720.669C1562.83 715.849 1555.87 713.345 1548.76 713.721C1538.62 714.205 1531.48 719.534 1524.91 726.695C1501.02 722.389 1475.58 717.057 1453.72 706.3C1453.45 706.533 1453.18 706.762 1452.9 706.987C1449.56 709.715 1446.28 712.575 1441.8 712.832C1432.14 713.388 1421.33 711.484 1411.67 710.545L1356.32 705.192L1155.42 686.388C1142.93 668.817 1129.03 615.647 1126.46 593.649C1125.75 587.59 1125.08 578.794 1127.8 573.281C1132.52 563.719 1141.37 554.598 1147.99 546.213L1182.83 501.939L1323.59 323.18C1278.73 316.66 1223.58 315.884 1179.62 308.908C1154.72 304.958 1161.72 195.615 1192.98 178.144Z"/><path d="M1730.51 408.421C1731.94 409.155 1733.03 410.017 1734.24 411.068C1735.47 427.506 1734.19 444.895 1734 461.411L1732.83 564.343C1714.16 559.937 1695.45 555.68 1676.71 551.575L1658.25 547.322C1681.58 500.683 1706.41 454.674 1730.51 408.421Z"/><path fill="#FA2B1C" d="M1029.87 175.452C1049.32 174.756 1075.05 170.997 1090.29 183.21C1115.46 203.388 1123.17 248.742 1126.96 278.967L963.056 542.147C1005.58 541.786 1061.03 537.648 1102.27 539.089C1107.29 542.352 1110 544.549 1113.02 550.009C1128.75 578.436 1132.76 665.587 1101.15 683.684L813.22 691.022C803.973 682.033 796.547 663.297 790.882 651.26C790.248 663.359 791.026 680.799 783.129 690.639C777.309 697.889 716.434 702.663 703.851 704.215C677.647 668.292 632.967 692.59 608.749 716.651C600.119 717.758 591.502 718.966 582.9 720.274C563.686 694.688 540.39 687.993 509.751 686.499C508.306 680.467 507.17 674.364 506.349 668.215C504.449 654.506 502.078 618.11 510.576 606.738C515.864 599.662 556.473 596.886 567.359 595.602C563.715 574.745 560.997 548.221 558.213 526.914L538.918 380.145C538.424 370.344 535.03 349.471 533.679 338.555C479.561 344.086 466.46 360.946 455.864 292.399C453.2 275.162 444.703 223.877 470.408 220.487C518.895 214.093 567.504 207.685 616.009 201.361L671.769 194.082C682.882 192.613 694.251 190.578 705.43 190.022C709.398 189.824 712.842 189.394 716.158 191.89C728.065 200.853 734.47 234.802 736.448 249.683C738.345 263.958 741.048 296.16 731.731 307.912C724.122 317.51 689.057 318.141 676.597 319.673C677.893 330.998 679.433 342.494 680.999 353.786C691.301 428.093 699.621 502.926 710.387 577.142C725.13 574.577 744.15 571.668 759.093 570.786C766.408 570.354 768.868 573.127 773.499 578.003L936.51 310.144C914.948 310.898 798.085 316.068 786.17 312.117C765.785 293.621 764.871 208.095 784.62 185.947C787.415 182.813 792.993 181.771 797.057 181.599C822.724 180.515 848.481 180.069 874.178 179.4L1029.87 175.452Z"/><path fill="#FA2B1C" d="M281.022 264.417C313.606 259.864 352.922 265.919 381.389 282.594C421.444 306.057 443.987 346.928 455.264 390.833C467.989 440.378 462.924 497.657 436.506 542.18C406.333 593.03 348.724 618.539 293.814 632.584C299.238 655.076 323.821 747.231 323.265 763.279C317.303 775.105 286.636 782.309 274.942 786.256C262.844 789.739 250.621 792.772 238.299 795.349C224.745 798.09 201.79 803.816 189.535 795.685C182.318 780.299 175.951 744.566 171.47 725.888L133.994 569.444L95.1314 407.253L83.1343 357.109C80.9417 347.923 78.0251 338.392 76.8394 329.019C76.1805 323.809 76.2836 316.948 79.754 312.625C82.8147 308.813 88.7148 306.492 93.2363 304.929C111.435 298.638 131.764 295.247 150.526 290.752C179.662 283.771 208.963 275.813 238.398 270.265C252.5 267.604 266.726 265.653 281.022 264.417Z"/><path d="M266.635 394.341C274.085 393.822 281.139 393.266 288.43 395.405C298.468 398.349 305.891 405.327 310.862 414.386C319.532 430.188 323.757 452.438 318.631 469.987C313.798 486.536 302.967 497.212 288.223 505.245C280.67 508.375 272.801 510.29 264.904 512.326C256.495 474.893 247.105 437.617 238.243 400.286C247.682 397.994 257.022 395.815 266.635 394.341Z"/><path fill="#FED838" d="M1130.51 699.193C1134.25 698.916 1138.5 698.811 1142.15 699.676C1147.6 700.97 1152.47 704.207 1155.32 709.088C1160.72 718.333 1159.25 731.46 1156.67 741.464C1151.44 761.746 1138.1 781.786 1120.97 793.913C1115.21 797.987 1108.73 800.981 1102.68 804.595C1098.85 806.887 1096.85 809.042 1095.8 813.493C1094.37 819.485 1095.42 825.801 1098.7 831.014C1101.78 835.874 1106.71 839.266 1112.35 840.407C1117.43 841.457 1122.37 840.579 1127.08 838.525C1142.88 831.627 1144.76 815.25 1152.44 801.715C1158.06 791.825 1165.54 782.905 1175.18 776.743C1187.54 768.846 1205.33 764.572 1219.75 767.912C1228.11 769.848 1235.33 774.1 1239.79 781.56C1245.11 790.44 1245.76 800.544 1243.3 810.427C1240.77 820.583 1234.77 829.205 1225.76 834.618C1210.22 843.946 1195.26 841.81 1178.74 837.609L1177.18 839.247C1177 840.641 1176.81 842.12 1177.18 843.498C1178.05 846.801 1181.16 849.312 1184.05 850.862C1195.21 856.87 1211.79 855.356 1223.6 851.579C1251.12 842.777 1253.12 827.825 1264.83 805.182C1273.03 789.342 1285.48 774.98 1302.97 769.507C1313.19 766.306 1325.64 764.865 1335.35 770.18C1338.92 772.128 1341.98 774.799 1345.59 776.7C1353.56 777.279 1358.48 769.571 1365.42 766.777C1368.02 765.732 1370.89 765.229 1373.5 766.587C1375.72 767.741 1377.08 770.013 1377.84 772.318C1380.97 781.856 1375.81 790.908 1371.6 799.072C1366.73 808.495 1358.79 824.091 1362.44 834.781C1363.3 837.305 1364.96 839.642 1367.47 840.72C1370.83 842.16 1374.82 841.205 1378.04 839.849C1395.44 832.518 1403 808.571 1409.43 792.374C1407.42 791.365 1405.58 790.276 1404.1 788.526C1401.16 785.06 1400.13 779.536 1400.59 775.117C1401.26 768.824 1405.03 762.274 1410.02 758.408C1416.39 753.476 1424.72 752.728 1432.45 753.795C1445.92 755.653 1462.28 762.678 1470.58 773.772C1482.37 789.531 1465.69 807.147 1463.67 823.602C1463.13 828.004 1463.68 832.316 1466.55 835.845C1469.33 839.248 1473.22 839.94 1477.39 840.304C1482.57 840.756 1487.47 839.233 1491.44 835.868C1498.32 830.024 1511.47 797.198 1512.15 788.431C1509.9 787.224 1507.56 786.019 1505.48 784.534C1502.37 782.311 1500 779.49 1499.52 775.588C1498.24 765.138 1514.35 765.936 1520.97 761.513C1529.69 755.684 1531.18 743.108 1537.6 735.341C1540.61 731.691 1544.55 729.242 1549.35 728.896C1552.15 728.694 1555.17 729.372 1557.25 731.36C1566.01 739.75 1552.2 754.84 1552.35 764.475C1555.8 770.076 1566.34 764.664 1572.24 768.974C1573.85 772.848 1573.28 777.04 1572.13 780.961C1567.02 798.339 1552.23 787.717 1540.24 794.603C1535.24 797.477 1532.53 802.64 1531.2 808.088C1529.41 815.386 1528.33 825.723 1532.56 832.265C1535.21 836.383 1539.63 838.846 1544.37 839.79C1552.46 841.403 1562.93 839.217 1568.74 833.141C1570.84 830.94 1573.25 827.249 1575.81 825.735C1577.53 824.717 1579.81 825.073 1581.59 825.758C1583.94 826.663 1585.49 828.393 1586.5 830.66C1586.84 838.625 1571.17 862.736 1566.01 869.99C1556.4 883.517 1542.57 897.304 1525.48 899.983C1516.93 901.323 1508.13 899.599 1501.16 894.321C1493.68 888.664 1491.65 880.001 1490.33 871.234C1482.8 881.916 1474.4 891.743 1462.04 896.929C1453.39 900.554 1442.11 901.315 1433.34 897.641C1427.53 895.206 1423.57 890.655 1421.25 884.866C1413 864.27 1426.24 839.776 1434.41 821.18C1435.93 817.078 1437.66 812.219 1436.42 807.855C1434.68 801.717 1428.47 798.733 1423.29 795.901C1411.45 821.286 1389.17 875.08 1369.01 891.772C1362.51 897.146 1354.17 901.472 1345.5 900.49C1339.51 899.81 1333.41 896.014 1329.79 891.247C1322.82 882.067 1323.97 869.228 1325.3 858.487C1321.43 866.751 1316.81 874.513 1310.88 881.484C1302.88 890.903 1292.34 899.242 1279.56 900.157C1273.28 900.608 1267.12 899.067 1262.37 894.782C1253.25 886.553 1251.43 872.878 1250.81 861.28C1237.09 878.268 1220.07 893.92 1198.13 898.747C1185.68 901.488 1171.01 900.593 1160.14 893.484C1148.1 885.616 1142.88 873.299 1139.94 859.824C1130.7 873.907 1120.22 889.016 1104.33 896.142C1094.1 900.733 1081.67 901.302 1071.18 897.137C1037.27 883.672 1066.57 827.877 1061.55 816.13C1060.13 814.435 1058.92 813.375 1056.66 813.07C1049.7 812.13 1040.56 812.046 1034.96 816.867C1028.26 822.642 1026.46 834.26 1022.75 842.096C1013.7 861.212 1000.02 882.651 983.009 895.535C967.911 906.967 947.915 913.329 928.976 910.571C917.319 908.873 906.607 903.426 899.601 893.756C892.129 883.442 889.788 869.423 891.889 857.003C893.911 845.049 900.124 834.995 910.105 828.049C915.057 824.602 920.605 822.226 926.694 823.47C930.334 824.214 932.952 834.223 935.148 837.454C938.805 842.835 944.048 844.311 950.222 845.414C961.906 847.5 973.274 843.933 982.779 837.111C1004.59 821.456 1012.37 793.125 1021.96 769.341C1025.02 761.733 1029.92 753.03 1031.26 744.972C1031.08 744.791 1030.92 744.598 1030.73 744.428C1029.1 742.932 1025.59 742.796 1023.47 742.786C1012.58 742.735 1002.53 745.19 994.71 753.187C988.835 759.193 984.775 767.574 984.895 776.083C985.061 787.992 989.078 784.845 994.792 791.379C995.871 792.613 996.047 794.809 995.938 796.359C995.416 803.815 991.394 810.533 985.829 815.369C977.845 822.181 967.483 825.545 957.019 824.722C948.441 823.976 941.101 820.268 935.675 813.564C927.271 803.18 925.802 788.866 927.292 776.009C929.691 755.318 941.754 736.373 957.978 723.647C979.797 706.533 1009.96 699.093 1037.35 702.51C1046.13 703.606 1054.57 706.309 1060.11 713.642C1075.1 733.463 1049.07 766.032 1046.66 785.644C1046.28 788.763 1047.01 790.453 1048.92 792.828C1053.53 794.951 1063.85 794.662 1068.62 793.027C1071.78 791.945 1073.57 789.228 1075.07 786.42C1078.47 780.088 1080.35 772.387 1082.75 765.596C1086.92 753.779 1091.61 741.946 1097.4 730.837C1105.08 716.134 1114.05 704.367 1130.51 699.193Z"/><path d="M1308.91 806.098C1312.17 805.884 1315.71 805.5 1318.87 806.558C1322.32 807.714 1325.21 810.047 1326.82 813.333C1328.97 817.72 1328.35 823.219 1326.7 827.655C1323.64 835.843 1318.16 840.759 1310.38 844.286C1307 844.855 1303.79 845.326 1300.46 844.244C1297.23 843.194 1294.63 841.219 1293.1 838.148C1290.72 833.353 1291.41 826.978 1293.22 822.119C1296.29 813.875 1301.12 809.739 1308.91 806.098Z"/><path d="M1194.09 796.038C1197.2 795.83 1200.49 795.568 1203.52 796.503C1206.44 797.404 1209.03 799.602 1210.43 802.314C1211.72 804.792 1211.96 807.686 1211.09 810.342C1209.41 815.671 1205.33 818.485 1200.59 820.922C1198.02 821.347 1195.2 821.923 1192.6 821.514C1189.31 820.994 1186.02 819.26 1184.23 816.368C1182.53 813.616 1182.3 810.233 1183.2 807.166C1184.89 801.321 1188.97 798.72 1194.09 796.038Z"/><path d="M1118.1 748.752C1121.45 749.047 1122.72 749.468 1125.3 751.659C1126.31 753.778 1126.63 755.337 1126.29 757.64C1124.91 767.003 1116.4 776.871 1109.08 782.178C1106.92 782.668 1106.46 782.807 1104.38 782.105C1103.33 780.237 1103.34 778.566 1103.65 776.515C1105.15 766.851 1110.21 754.685 1118.1 748.752Z"/><path fill="#FED838" d="M499.297 702.342C499.518 702.305 499.739 702.267 499.96 702.233C518.512 699.418 541.196 704.159 556.434 715.23C576.142 729.549 582.934 751.25 586.564 774.285C595.451 755.582 608.181 737.353 623.405 723.265C635.58 711.998 652.344 700.981 669.56 701.84C677.058 702.215 684.443 704.675 689.464 710.491C694.617 716.457 696.069 724.961 695.408 732.609C694.597 741.996 690.294 754.034 682.742 760.147C677.048 764.756 672.071 760.564 665.998 760.51C663.94 760.491 662.16 761.324 660.673 762.726C649.986 772.8 644.505 804.375 643.944 818.529C643.702 824.613 643.883 831.203 648.318 835.859C651.351 839.044 655.404 840.757 659.802 840.743C667.073 840.719 673.31 836.595 678.236 831.615C688.386 821.354 693.541 777.814 715.782 766.784C718.059 765.654 720.536 765.298 722.953 766.266C742.522 774.1 712.486 818.641 718.782 834.555C719.642 836.728 721.44 838.665 723.665 839.47C726.541 840.511 730.499 840.384 733.468 839.811C758.397 834.998 754.196 782.039 781.542 768.584C785.742 766.518 789.661 765.556 794.157 767.142C813.12 781.699 771.945 826.173 781.612 845.913C782.726 848.187 784.291 849.376 786.697 850.062C798.71 853.483 807.538 831.501 816.69 826.656C819.338 825.254 820.8 825.674 823.473 826.537C825.263 828.484 825.928 829.144 826.538 831.805C823.107 846.522 807.454 875.819 797.437 887.156C791.894 893.428 784.329 899.565 775.609 899.973C770.237 900.225 767.348 898.423 763.458 894.909C756.739 916.991 746.916 944.625 728.456 959.559C718.121 967.919 705.363 971.025 692.305 969.593C680.805 968.331 669.825 963.673 662.522 954.414C655.328 945.292 652.852 932.825 654.378 921.453C656.147 908.269 662.654 899.279 673.034 891.518C674.133 897.597 675.187 902.512 679.057 907.554C683.307 913.091 688.822 916.528 695.784 917.44C706.733 918.873 718.071 914.436 726.551 907.717C737.464 899.07 746.68 883.583 747.757 869.447C747.935 867.103 747.155 866.222 745.66 864.658C743.047 864.671 743.008 865.119 741.082 866.956C739.17 871.329 737.058 875.626 734.377 879.586C728.495 888.276 719.015 895.191 708.611 897.107C701.338 898.447 693.567 897.49 687.429 893.171C678.861 887.141 677.155 877.961 675.61 868.357C668.071 879.863 659.28 890.763 646.434 896.591C638.314 900.275 627.932 901.685 619.466 898.303C611.886 895.275 607.22 888.726 604.588 881.226C591.922 845.129 623.943 797.609 619.35 786.585C617.234 784.644 616.872 784.206 614.08 783.738C591.914 790.889 584.762 869.09 573.656 880.584C568.978 885.425 562.014 887.441 555.438 887.424C550.25 887.411 543.566 886.273 539.841 882.33C527.689 869.468 551.733 816.031 551.838 795.315C551.855 792.135 551.44 787.845 548.829 785.626C546.783 783.888 545.317 783.93 542.817 783.927C540.595 785.074 539.114 786.467 538.2 788.82C535.568 795.596 534.589 803.772 532.722 810.891C527.688 830.09 520.448 848.97 509.901 865.848C496.722 886.936 477.708 903.53 453.058 909.153C438.129 912.559 420.842 912.351 407.602 903.814C397.879 897.545 391.953 887.84 389.629 876.625C386.866 863.291 389.208 850.136 396.861 838.7C401.498 831.77 408.723 824.846 417.22 823.318C431.31 820.784 426.496 834.363 437.39 841.784C444.443 846.588 452.705 847.291 460.915 845.672C479.795 841.95 494.465 827.485 504.664 811.919C513.408 798.574 522.646 774.946 519.005 758.816C517.911 753.973 514.861 749.583 510.571 747.037C505.926 744.281 500.262 743.916 495.1 745.239C488.984 746.806 483.341 750.83 480.23 756.373C467.159 779.661 488.654 781.845 491.336 793.856C492.183 797.647 488.229 803.169 486.12 806.032C480.789 813.246 472.799 818.035 463.923 819.335C454.342 820.748 444.595 818.253 436.871 812.41C428.364 805.859 423.906 795.517 422.525 785.091C420.141 767.085 425.577 749.157 436.597 734.844C452.252 714.508 474.514 705.496 499.297 702.342Z"/><path d="M1389.76 795.747L1390.83 797.489C1388.72 804.813 1385 811.641 1380.87 818.007L1380.13 817.874C1382.19 810.448 1386.56 802.801 1389.76 795.747Z"/><path d="M2528.6 111.395C2544.85 108.44 2562.28 117.777 2571.83 130.65L2572.59 130.125C2599.46 111.688 2659.57 118.84 2677.89 145.845C2680.03 145.637 2686.56 145.036 2688.5 145.065C2721.28 145.553 2776.76 174.838 2793.47 203.462C2796.23 208.147 2798.26 213.641 2799.6 218.843C2801.89 227.743 2797.03 228.62 2807.11 229.435C2836.42 231.805 2861.44 247.276 2882.45 267.041C2898.45 282.1 2933.37 327.797 2913.2 348.723C2932.12 357.012 2948.89 370.46 2960.32 387.725C2971.87 405.168 3004.78 464.825 2980.16 480.714C2980.65 538.207 2928.08 584.122 2878.68 603.945C2866.8 608.716 2841 611.148 2827.28 613.114C2803.8 616.686 2780.28 620.039 2756.74 623.175C2651.39 637.451 2538.75 652.587 2433.13 661.134C2434.62 712.204 2452.36 778.357 2392.34 804.595C2384.88 807.856 2379.57 808.056 2371.72 806.576C2342.37 790.072 2354.34 734.289 2351.02 705.666C2349.44 692.062 2347.55 680.137 2345.25 666.61C2326.96 667.205 2303.63 668.368 2285.56 670.132C2285.13 671.785 2284.67 673.431 2284.18 675.067C2270.8 719.556 2220.15 709.737 2202.78 675.547C2180.04 676.222 2131.64 672.93 2113.51 676.151C2110.92 692.133 2110.16 706.323 2106.54 723.319C2097.26 766.907 2044.64 773.492 2022.92 736.124C2010.94 715.511 2016.56 685.887 2015.64 663.08C2014.84 643.04 2009.04 620.315 2015.67 600.315C2019.29 589.293 2029.03 580.56 2034.18 570.224C2040.07 558.924 2043.55 539.748 2050.7 529.611C2063.49 511.48 2080.26 492.542 2094.31 475.358C2197.99 349.19 2327.23 246.411 2473.5 173.787C2463.82 135.74 2495.47 115.047 2528.6 111.395Z"/><path fill="#FED838" d="M2037.69 737.288C2019.77 720.96 2027.94 683.691 2027.19 662.65C2026.5 643.112 2020.99 622.962 2026.63 603.711C2029.91 591.156 2041.46 582.291 2046.91 571.03C2052.94 558.584 2052.57 544.902 2061.46 533.289C2071.36 520.34 2082.36 508.479 2092.62 495.759C2195.45 368.283 2330.17 254.67 2478.61 184.25C2481.27 187.871 2484.91 191.466 2488.05 194.752C2503.64 207.923 2522.62 215.164 2543.09 211.03C2553.03 248.861 2586.53 274.737 2626.15 269.222C2629.47 281.814 2632.77 291.096 2640.84 301.871C2653.56 318.844 2672.5 333.199 2693.14 338.875C2697.64 339.893 2702.61 340.577 2707.07 341.092C2707.75 341.17 2710.45 356.85 2711.06 358.359C2722.15 386.108 2744.59 408.044 2775.61 409.333C2777.7 444.117 2804.33 473.546 2828.02 497.66C2836.62 506.417 2843.38 504.211 2853.26 511.858C2833.94 533.57 2806.65 528.403 2780.01 529.166C2756.12 529.862 2732.25 531.125 2708.42 532.954C2678.13 535.412 2647.01 541.215 2617.2 543.444C2591.53 545.363 2562.89 545.85 2537.68 547.764C2455.81 553.98 2415.87 590.29 2421.71 674.653C2424.17 710.061 2434.66 760.536 2402.07 785.292C2349.73 826.25 2365.07 731.87 2363.7 707.001C2362.82 690.941 2352.9 660.171 2355.4 644.994C2361.72 606.667 2390.59 558.737 2323.81 557.368C2312.47 557.136 2295.38 562.149 2287.62 570.583C2263.68 596.194 2293.77 686.883 2252.47 693.614C2242.36 693.529 2228.67 689.619 2221.47 682.799C2213.3 675.328 2209.87 662.978 2210.02 652.195C2210.37 627.879 2215.55 589.234 2189.36 575.043C2139.22 547.884 2114.73 634.164 2104.46 666.42C2095.75 693.757 2104.62 744.851 2065.12 748.905C2056.48 749.694 2043.38 743.771 2037.69 737.288Z"/><path fill="#FFFEFE" d="M2037.69 737.288C2019.77 720.96 2027.94 683.691 2027.19 662.65C2026.5 643.112 2020.99 622.962 2026.63 603.711C2029.91 591.156 2041.46 582.291 2046.91 571.03C2052.94 558.584 2052.57 544.902 2061.46 533.289C2071.36 520.34 2082.36 508.479 2092.62 495.759C2195.45 368.283 2330.17 254.67 2478.61 184.25C2481.27 187.871 2484.91 191.466 2488.05 194.752C2469.73 205.082 2450.28 212.967 2431.75 223.218C2388.06 247.582 2346.13 274.991 2306.29 305.243C2293.67 314.645 2283.2 322.849 2271.77 333.754C2269.29 336.12 2263.02 340.551 2261.2 342.716L2256.71 346.11C2235.95 358.75 2184.41 420.159 2164.19 441.344C2160.21 442.677 2157.14 445.877 2155.98 449.907C2140.74 464.366 2112.54 488.756 2100.37 503.298C2077.19 531.012 2037.82 595.876 2038.78 631.649C2040.99 631.203 2042.21 630.994 2044.43 631.503C2048.18 636.258 2043.7 654.428 2044.24 662.292C2044.89 671.542 2050.67 685.417 2050.24 693.157L2048.99 695.629C2043.06 696.908 2040.05 693.053 2036.89 688.527C2035.67 700.248 2034.9 709.71 2036.36 721.469C2037.05 727.053 2040.26 733.329 2037.69 737.288Z"/><path d="M2261.2 342.716C2276.95 336.061 2295.18 333.8 2298.66 354.944C2302.06 375.546 2256.6 391.76 2247.77 369.065C2244.74 361.281 2251.7 351.665 2256.71 346.11L2261.2 342.716Z"/><path fill="#FA2B1C" d="M2273.86 346.307C2277.03 346.024 2280.73 345.671 2283.77 346.764C2286.06 347.592 2288.34 349.194 2289.27 351.535C2290.3 354.145 2289.54 357.185 2288.37 359.607C2284.91 366.804 2279.04 369.648 2271.89 372.163C2268.54 372.641 2264.74 372.593 2261.55 371.371C2259.36 370.53 2257.57 369.161 2256.76 366.876C2255.9 364.459 2256.47 361.927 2257.45 359.652C2260.7 352.128 2266.65 349.139 2273.86 346.307Z"/><path d="M2164.19 441.344C2169.77 439.475 2175.9 441.655 2179.05 446.624C2182.2 451.594 2181.55 458.07 2177.48 462.315C2173.4 466.559 2166.96 467.476 2161.86 464.536C2156.77 461.595 2154.34 455.557 2155.98 449.907C2157.14 445.877 2160.21 442.677 2164.19 441.344Z"/><path d="M2560.97 339.413C2590.78 337.701 2626.23 343.806 2650.49 362.202C2662.02 370.946 2669.09 383.177 2671.05 397.484C2672.94 411.313 2669.49 424.729 2661.01 435.834C2646.33 455.044 2621.97 465.138 2598.63 468.362C2598.2 468.426 2597.76 468.483 2597.33 468.535C2568.4 472.018 2535.33 464.589 2512.27 446.35C2499.6 436.324 2488.68 421.844 2486.98 405.346C2485.59 391.811 2490.52 378.835 2498.92 368.405C2514.38 349.228 2537.3 341.864 2560.97 339.413Z"/><path fill="#FA2B1C" d="M2560.52 347.417C2585.46 344.644 2620.54 352.428 2641.55 366.536C2651.85 373.454 2660.69 383.153 2663.04 395.712C2665.33 407.948 2661.23 420.683 2654.17 430.675C2641.73 448.252 2622.58 456.182 2602.01 459.684L2601.27 459.776C2574.01 463.154 2539.3 457.768 2517.22 440.371C2506.34 431.798 2497.41 419.8 2495.91 405.677C2494.61 393.376 2498.91 381.343 2506.68 371.883C2520.4 355.17 2539.75 349.408 2560.52 347.417Z"/><path fill="#FFFEFE" d="M2565.51 350.175C2572.37 349.628 2579.94 350.35 2586.06 353.684C2589.63 355.623 2595.61 360.245 2596.6 364.336C2596.96 365.821 2596.24 366.321 2595.46 367.528C2593.49 367.296 2591.51 367.077 2589.53 366.871C2566.02 364.436 2552.63 369.807 2534.63 384.401C2528.84 388.624 2524.07 395.285 2517.53 398.363L2515.62 397.629C2515.38 397.041 2515.21 396.745 2515.1 396.147C2514.11 390.708 2518.12 383.913 2520.97 379.532C2531.46 363.381 2546.9 354.096 2565.51 350.175Z"/><path d="M2644.24 403.273C2644.53 403.371 2644.82 403.454 2645.1 403.566C2646.81 404.247 2648.47 406.517 2649.09 408.231C2650.14 411.167 2649.14 414.471 2647.86 417.172C2642.87 427.719 2632.36 434.448 2621.75 438.101L2618.17 437.74L2618.07 436.647C2623.6 431.333 2630.87 428.418 2636.38 423.283C2642.29 417.765 2644.03 411.039 2644.24 403.273Z"/><path fill="#FFFEFE" d="M2513.14 405.501C2516.39 403.593 2520.56 404.612 2522.56 407.802C2524.57 410.992 2523.67 415.195 2520.54 417.286C2518.43 418.694 2515.72 418.845 2513.47 417.681C2511.22 416.517 2509.78 414.222 2509.71 411.689C2509.64 409.156 2510.96 406.786 2513.14 405.501Z"/><path d="M2399.61 256.141C2417.26 253.685 2443.85 260.464 2458.15 271.241C2471.63 281.405 2481.69 298.248 2483.89 315.038C2485.82 329.835 2480.68 344.11 2471.78 355.771C2455.94 376.528 2428.18 389.516 2402.77 393.026C2383.14 396.477 2359.26 393.294 2342.17 382.704C2328.77 374.523 2319.27 361.262 2315.83 345.951C2312.32 330.798 2314.79 315.89 2323.03 302.698C2339.43 276.435 2370.59 262.757 2399.61 256.141Z"/><path fill="#FA2B1C" d="M2397.5 265.103C2416.53 264.19 2434.8 265.96 2450.98 276.942C2463.1 285.169 2472.47 297.865 2475.16 312.42C2477.55 325.338 2474.14 338.219 2466.75 348.95C2452.64 369.464 2426.68 380.302 2403 384.706C2385.1 387.971 2365.27 386.483 2349.27 377.232C2336.44 369.945 2327.12 357.771 2323.42 343.488C2320.36 331.379 2322.33 319.578 2328.7 308.9C2342.67 285.461 2372.01 271.507 2397.5 265.103Z"/><path fill="#FFFEFE" d="M2396.69 268.138C2397.2 268.108 2397.71 268.08 2398.22 268.077C2402.98 268.044 2406.67 268.847 2410.74 271.542C2412.71 272.846 2413.29 273.366 2413.77 275.638C2410.33 279.991 2396.06 278.916 2389.8 282.559C2376.6 290.246 2366.14 305.815 2356.77 317.551C2355.75 318.824 2354.72 320.207 2353.54 321.34C2351.62 323.192 2350.78 323.282 2348.27 323.132L2346.64 321.05C2345.36 315.142 2347.33 309.275 2350.14 304.094C2359.66 286.579 2377.84 273.688 2396.69 268.138Z"/><path d="M2454.3 315.875C2457.12 316.902 2459.51 318.865 2461.06 321.437C2463.29 325.127 2463.43 329.231 2462.29 333.331C2459.93 341.864 2453.94 347.997 2446.41 352.185C2444.96 352.175 2443.88 352.057 2442.52 351.467C2441.08 350.839 2441.17 350.345 2440.61 348.936C2441.98 343.03 2451.04 336.373 2454.27 330.37C2457.07 325.162 2455.92 321.312 2454.3 315.875Z"/><path fill="#FFFEFE" d="M2346.66 336.558C2349.02 335.663 2351.68 336.144 2353.58 337.808C2355.48 339.473 2356.3 342.049 2355.72 344.505C2355.14 346.961 2353.25 348.896 2350.81 349.535C2347.3 350.454 2343.69 348.467 2342.58 345.013C2341.48 341.558 2343.27 337.844 2346.66 336.558Z"/><path d="M2416.05 363.078C2417.26 363.669 2417.51 364.369 2418.24 365.452L2417.27 368.094C2414.34 371.027 2411.42 372.54 2407.65 374.232C2405.88 372.344 2405.52 372.057 2405.1 369.532C2406.81 366.335 2412.82 364.626 2416.05 363.078Z"/><path d="M2267.13 395.361C2268.31 395.223 2269.5 395.11 2270.69 395.022C2298.08 393.024 2344.19 401.338 2365.19 419.84C2374.16 427.747 2380.23 438.367 2380.88 450.456C2381.59 463.475 2376.2 476.246 2367.56 485.825C2354.5 500.311 2337.41 503.931 2318.79 504.883C2294.28 503.515 2237.76 495.534 2218.98 480.963C2210.85 474.657 2204.87 465.899 2203.72 455.518C2202.34 443.022 2207.84 430.548 2215.51 420.929C2228.47 404.653 2246.93 397.571 2267.13 395.361Z"/><path fill="#FA2B1C" d="M2267.42 403.324C2269.52 402.933 2271.76 402.941 2273.89 402.839C2299.77 401.602 2340.88 408.496 2360.54 426.728C2367.41 433.097 2371.81 441.692 2371.97 451.15C2372.15 462.329 2367.26 472.987 2359.53 480.921C2348.14 492.62 2333.55 496.698 2317.72 496.864C2295.12 495.425 2241.3 487.328 2223.99 474.306C2217.59 469.494 2212.23 463.002 2211.17 454.832C2210.01 445.958 2214.08 437.378 2219.29 430.458C2231.15 414.724 2248.19 405.978 2267.42 403.324Z"/><path fill="#FFFEFE" d="M2263.78 411.299C2271.5 410.206 2284.52 410.344 2291.09 414.914C2291.87 415.454 2291.72 416.14 2291.89 417.027C2283.05 426.032 2261.01 416.486 2243.33 438.207C2240.71 442.106 2238.4 448.562 2234.89 451.476C2233.8 452.377 2233.21 452.041 2231.86 451.92C2229.84 450.281 2229.01 448.553 2228.46 446.069C2227.06 439.746 2228.84 432.785 2232.4 427.48C2239.77 416.524 2251.64 413.582 2263.78 411.299Z"/><path d="M2348.2 436.918C2349.28 436.939 2350.39 436.971 2351.45 437.198C2354.07 437.759 2356.86 439.829 2358.14 442.216C2359.63 444.988 2359.33 448.824 2358.56 451.767C2355.8 462.316 2347.77 471.736 2338.47 477.076C2335.91 476.851 2334.76 477.013 2332.71 475.34C2332.04 466.229 2346.23 457.735 2350.25 449.875C2352.36 445.73 2349.57 440.948 2348.2 436.918Z"/><path fill="#FFFEFE" d="M2237.11 457.637C2240.57 456.357 2244.43 458.037 2245.84 461.444C2247.26 464.85 2245.74 468.769 2242.39 470.324C2240.11 471.388 2237.42 471.113 2235.39 469.608C2233.37 468.102 2232.33 465.609 2232.69 463.111C2233.05 460.613 2234.74 458.512 2237.11 457.637Z"/><path d="M2307.88 468.625C2310.16 466.866 2313.42 467.258 2315.21 469.506C2317.01 471.754 2316.67 475.025 2314.45 476.854C2312.98 478.062 2310.98 478.386 2309.2 477.702C2307.43 477.017 2306.16 475.431 2305.89 473.55C2305.62 471.67 2306.38 469.787 2307.88 468.625Z"/><path d="M2158.58 493.138C2168.12 491.989 2175.53 493.572 2184.42 496.938C2186.72 500.724 2189.01 504.905 2189.51 509.369C2190.43 517.66 2187.51 525.462 2182.39 531.902C2173.33 543.279 2160.48 547.453 2146.66 549.09C2137.66 548.96 2127.49 548.467 2119.68 543.434C2115.95 541.029 2113.25 537.541 2112.32 533.151C2111.2 527.816 2113.04 522.348 2115.96 517.901C2124.97 504.16 2143.11 496.416 2158.58 493.138Z"/><path fill="#FA2B1C" d="M2160.08 501.213C2166.03 500.736 2173.88 500.355 2178.95 504.181C2181.05 505.771 2182.24 508.098 2182.46 510.718C2182.9 516.021 2179.42 521.78 2176.16 525.672C2166.97 536.656 2156.51 539.725 2142.92 541.024C2137.41 540.63 2130.34 540.052 2125.5 537.315C2123.16 535.993 2121.09 533.913 2120.54 531.204C2119.87 527.96 2121.35 524.564 2123.14 521.935C2131 510.435 2146.92 503.856 2160.08 501.213Z"/><path fill="#FFFEFE" d="M2140.98 527.346C2145.78 526.95 2150.83 526.583 2155.64 526.779C2158.34 526.888 2160.81 527.003 2162.65 529.028C2161.26 531.709 2158.32 532.49 2155.68 533.636C2149.01 535.381 2140.73 535.608 2134.48 532.447L2133.89 530.603C2135.55 528.227 2138.33 527.945 2140.98 527.346Z"/><path d="M2746.23 443.032C2747.74 442.883 2749.11 442.819 2750.58 443.244C2752.81 443.887 2754.1 444.255 2755.19 446.497C2758.69 453.66 2753.15 468.249 2750.6 475.303C2746.48 486.687 2741.63 500.811 2729.74 506.155C2722.8 509.275 2716.29 507.883 2709.47 505.205C2703.59 502.34 2697.01 497.266 2694.6 490.985C2692.96 486.707 2693.46 482.296 2695.33 478.18C2703.23 460.724 2729.6 449.448 2746.23 443.032Z"/><path fill="#FA2B1C" d="M2745.88 452.019C2746.96 452.236 2747.09 452.663 2747.82 453.445C2748.28 463.344 2741.02 479.159 2736.48 487.907C2733.88 492.918 2730.09 497.825 2724.45 499.492C2718.94 501.117 2713.87 498.309 2709.21 495.669C2707.27 493.987 2704.4 491.475 2703.33 489.105C2702.04 486.262 2702.18 483.015 2703.37 480.16C2708.94 466.709 2733.47 457.21 2745.88 452.019Z"/><path d="M2436.51 483.373C2443.57 483.041 2452.9 483.225 2458.99 487.226C2462.16 489.306 2464.19 492.345 2464.85 496.08C2465.91 501.985 2463.29 508.23 2459.84 512.901C2451.7 523.917 2440.87 527.993 2427.87 529.945C2420.03 529.532 2410.83 528.427 2404.4 523.565C2401 520.999 2398.72 517.445 2398.2 513.178C2397.62 508.363 2399.6 503.562 2402.51 499.818C2410.58 489.459 2423.91 484.864 2436.51 483.373Z"/><path fill="#FA2B1C" d="M2432.14 492.138C2437.48 491.635 2445.65 490.651 2450.66 492.856C2453.66 494.182 2455.09 495.581 2456.34 498.66C2456.57 501.326 2456.31 503.227 2455.07 505.614C2450.64 514.086 2440.82 518.79 2432.11 521.49C2426.49 521.532 2419.08 521.64 2413.89 519.314C2411.12 518.072 2408.4 516.098 2407.42 513.09C2406.55 510.454 2407.36 507.709 2408.75 505.423C2413.48 497.641 2423.82 494.31 2432.14 492.138Z"/><path d="M2520.88 238.394C2528.4 238.778 2533.95 239.989 2540.19 244.409C2547.71 249.728 2553.79 258.015 2555.26 267.238C2556.11 272.573 2555.29 278.106 2552 282.5C2547.33 288.741 2540.67 290.263 2533.38 291.269C2526.49 290.468 2520.36 288.457 2514.52 284.627C2507.02 279.702 2500.31 272.273 2498.64 263.2C2497.71 258.117 2498.45 252.786 2501.44 248.488C2506.05 241.864 2513.32 239.674 2520.88 238.394Z"/><path fill="#FA2B1C" d="M2517.47 247.238C2522.16 246.882 2525.96 246.522 2530.33 248.456C2537.4 251.586 2543.91 257.841 2546.63 265.162C2547.91 268.616 2548.12 272.306 2546.54 275.695C2544.47 280.15 2541.21 281.534 2536.78 283.104C2533.48 283.082 2529.93 282.561 2526.78 281.567C2519.61 279.299 2511.64 273.399 2508.15 266.62C2506.51 263.43 2505.86 259.904 2507.04 256.452C2508.79 251.327 2512.85 249.421 2517.47 247.238Z"/><path d="M2612.04 488.245C2618.34 487.649 2624.18 487.315 2630.42 488.869C2637.6 490.656 2645.72 494.33 2649.56 501.029C2651.46 504.327 2652.36 508.519 2651.19 512.216C2649.22 518.401 2642.55 523.606 2637.03 526.451C2630.4 528.248 2624.08 528.094 2617.59 525.706C2610 522.917 2602.42 517.296 2599.13 509.707C2597.58 506.139 2597.13 502.151 2598.73 498.515C2601.31 492.623 2606.38 490.465 2612.04 488.245Z"/><path fill="#FA2B1C" d="M2614.86 496.138C2618.99 495.913 2623.08 495.68 2627.15 496.557C2633.09 497.836 2639.33 500.217 2642.7 505.524C2642.88 506.647 2643.37 508.174 2643.06 509.26C2641.65 514.233 2637.53 516.393 2633.27 518.731C2629.56 519.46 2625.74 519.787 2622.06 518.719C2616.91 517.222 2609.59 513.046 2607.12 508.016C2606.17 506.081 2606.03 503.93 2606.8 501.93C2608.08 498.594 2611.84 497.411 2614.86 496.138Z"/><path d="M2603.4 285.095C2607.86 284.634 2612.97 283.96 2617.11 286.106C2622.71 289.006 2627.44 294.137 2629.36 300.182C2630.75 304.542 2630.5 308.98 2628.34 313.042C2625.17 319.028 2619.28 320.985 2613.21 322.883C2608.38 323.745 2603.98 324.095 2599.31 322.261C2594.39 320.328 2590.23 316.569 2588.12 311.689C2586.13 307.154 2586.12 301.993 2588.1 297.453C2591.1 290.476 2596.74 287.706 2603.4 285.095Z"/><path fill="#FA2B1C" d="M2605.16 293.002C2605.81 292.957 2606.46 292.932 2607.12 292.926C2609 292.897 2611.23 292.688 2613.02 293.355C2616.12 294.51 2619.58 297.922 2620.92 300.911C2622.02 303.338 2622.11 306.283 2621.05 308.744C2619.34 312.747 2615.44 313.956 2611.66 315.268C2609.03 315.459 2605.9 315.389 2603.35 314.703C2600.25 313.872 2597.29 311.808 2595.8 308.919C2594.63 306.638 2594.47 304.128 2595.32 301.706C2596.98 296.981 2600.92 295.052 2605.16 293.002Z"/><path d="M2448.23 419.212C2452.8 419.098 2456.07 420.338 2459.96 422.642C2463.91 424.978 2466.81 428.019 2467.84 432.601C2468.69 436.422 2467.91 440.284 2465.78 443.547C2461.17 450.617 2453.63 452.373 2445.9 453.993C2440.36 454.247 2434.58 453.387 2429.99 450.046C2426.91 447.808 2424.88 444.735 2424.3 440.956C2423.63 436.687 2424.97 432.364 2427.56 428.953C2432.7 422.179 2440.25 420.328 2448.23 419.212Z"/><path fill="#FA2B1C" d="M2448.08 427.115C2449.67 427.172 2451.44 427.55 2452.91 428.182C2455.7 429.385 2458.32 430.942 2459.52 433.839C2459.69 435.659 2459.57 436.945 2458.72 438.596C2456.45 442.972 2451.06 443.844 2446.71 445.106C2444 445.452 2441.15 445.624 2438.46 444.962C2435.81 444.31 2434.23 442.989 2432.8 440.68C2432.34 438.045 2432.77 436.165 2434.25 433.968C2437.41 429.319 2442.93 428.169 2448.08 427.115Z"/><path fill="#FFFEFE" d="M2222.24 615.419C2229.2 619.581 2225.48 646.969 2228.81 655.921C2229.95 658.952 2232.51 661.932 2234.37 664.574C2237.13 668.489 2238.3 669.843 2237.45 674.747C2235.53 677.228 2233.92 677.884 2231.06 678.898C2228.5 678.199 2225.53 677.304 2223.29 675.867C2218.17 672.575 2215.26 666.172 2214.14 660.384C2211.64 647.492 2214.99 626.427 2222.24 615.419Z"/><path d="M2404.58 668.446C2405.11 668.73 2405.65 669.047 2406.1 669.447C2415.04 677.431 2418.1 699.749 2419.13 710.94C2420.53 726.213 2420.73 743.664 2410.44 756.029C2408.39 757.184 2407.15 758.45 2404.77 758.036C2403.17 751.633 2408.46 739.483 2409.54 732.511C2412.87 710.952 2401.84 689.787 2404.58 668.446Z"/><path fill="#FFFEFE" d="M2375.2 689.57C2376.67 690.206 2377.96 691.151 2378.62 692.604C2381.88 699.751 2380.04 738.467 2377 746.029C2375.96 748.597 2375.17 748.648 2372.73 749.735C2366.8 742.397 2365.02 734.907 2364.92 725.6C2364.79 713.256 2366.2 698.734 2375.2 689.57Z"/><path d="M2104.91 621.552L2106.12 622.199L2106.34 623.914C2101.46 635.779 2096.78 648.167 2094.67 660.866C2091.4 680.555 2098.92 695.355 2084.25 712.461C2083.52 711.918 2082.28 711.284 2082 710.426C2080.45 705.616 2081.37 698.524 2081.79 693.518C2084.06 666.403 2092.93 645.626 2104.91 621.552Z"/><path fill="#FFFEFE" d="M2785.96 505.433C2788.4 505.203 2790.86 505.049 2793.31 505.131C2797.17 505.261 2803.81 506.467 2806.53 509.324C2806.37 509.57 2806.23 509.824 2806.06 510.063C2802.44 515.204 2775.78 516.8 2769.24 517.681C2764.97 518.324 2759.87 519.539 2755.59 518.867C2752.94 518.45 2750.13 517.84 2748.49 515.575L2749.33 513.84C2759.16 506.631 2774.22 506.47 2785.96 505.433Z"/><path d="M2536.56 486.577C2543.14 484.638 2550.06 488.275 2552.2 494.789C2554.33 501.304 2550.91 508.336 2544.46 510.668C2540.11 512.239 2535.26 511.322 2531.78 508.274C2528.31 505.225 2526.77 500.528 2527.76 496.014C2528.76 491.5 2532.13 487.884 2536.56 486.577Z"/><path d="M2266.59 591.399C2267.19 591.605 2267.11 591.545 2267.75 591.959C2269.9 593.357 2270.91 596.427 2271.47 598.804C2274.85 613.1 2268.13 641.064 2260.68 653.633C2259.68 654.41 2259.58 654.142 2258.38 654.031C2257.4 651.479 2257.49 649.045 2257.76 646.372C2258.66 637.125 2261.38 627.802 2262.93 618.61C2264.44 609.569 2264.87 600.429 2266.59 591.399Z"/><path fill="#FFFEFE" d="M2429.88 560.521C2430.95 561.016 2431.87 561.866 2432.81 562.578C2432.79 568.257 2425.48 575.394 2423.14 580.905C2418.94 590.769 2418.55 601.685 2413.32 611.366C2412.52 610.867 2411.69 610.315 2411.07 609.583C2408.64 606.696 2408.28 601.208 2408.52 597.628C2409.46 583.636 2419.51 569.402 2429.88 560.521Z"/><path d="M2224.39 515.618C2227.85 514.096 2231.86 514.56 2234.89 516.831C2237.91 519.103 2239.47 522.829 2238.98 526.577C2238.48 530.326 2235.99 533.515 2232.48 534.918C2227.18 537.036 2221.16 534.513 2218.95 529.247C2216.74 523.981 2219.16 517.917 2224.39 515.618Z"/><path fill="#FFFEFE" d="M2561.73 523.273C2565.49 522.748 2571.29 522.558 2574.94 523.548C2577.56 524.26 2578.99 525.31 2580.24 527.641L2578.93 529.629C2575.68 531.736 2571.35 531.844 2567.57 532.303C2563.2 532.803 2557.66 534.008 2553.33 533.229C2550.58 532.733 2548.45 531.713 2546.81 529.505L2548.02 527.452C2551.84 524.404 2557.04 524.064 2561.73 523.273Z"/><path d="M2464.96 215.449C2469.74 214.364 2474.53 217.279 2475.76 222.032C2476.99 226.784 2474.22 231.654 2469.5 233.026C2466.33 233.952 2462.9 233.075 2460.55 230.738C2458.21 228.4 2457.32 224.973 2458.24 221.792C2459.15 218.611 2461.73 216.181 2464.96 215.449Z"/><path d="M2339.43 514.437C2343.94 512.533 2349.15 514.63 2351.08 519.131C2353.02 523.633 2350.95 528.851 2346.46 530.814C2341.93 532.795 2336.66 530.709 2334.71 526.166C2332.75 521.623 2334.87 516.359 2339.43 514.437Z"/><path d="M2093.92 581.591C2098.79 580.875 2103.32 584.249 2104.03 589.122C2104.73 593.995 2101.35 598.516 2096.48 599.214C2091.62 599.911 2087.11 596.539 2086.4 591.678C2085.7 586.818 2089.06 582.304 2093.92 581.591Z"/><path d="M2398.12 417.566C2402.24 415.769 2407.03 417.675 2408.78 421.807C2410.54 425.94 2408.58 430.71 2404.44 432.425C2400.34 434.115 2395.65 432.195 2393.92 428.12C2392.19 424.046 2394.07 419.337 2398.12 417.566Z"/><path d="M2499.9 475.808C2502.99 475.838 2504.66 476.145 2507.32 477.785C2508.89 480.192 2509.07 480.531 2509.02 483.386C2507.6 486.466 2506.09 487.43 2503.25 489.075C2500.85 488.982 2498.29 488.815 2496.43 487.06C2494.59 485.317 2494.63 484.044 2494.54 481.705C2495.67 478.554 2497.21 477.565 2499.9 475.808Z"/><path d="M2515.03 326.545C2518.51 325.659 2522.09 327.601 2523.24 331.003C2524.39 334.405 2522.73 338.119 2519.42 339.529C2517.05 340.542 2514.31 340.139 2512.32 338.485C2510.34 336.831 2509.45 334.205 2510.02 331.687C2510.59 329.169 2512.53 327.183 2515.03 326.545Z"/><path fill="#FFFEFE" d="M2286.65 547.648L2287.8 548.058C2288.7 549.069 2289.19 549.285 2289.21 550.655C2289.3 556.97 2283.03 565.388 2278.84 569.725C2277.23 567.763 2276.52 567.182 2276.45 564.573C2276.27 558.094 2282.42 551.982 2286.65 547.648Z"/><path d="M2705.33 415.44C2707.27 414.256 2709.69 414.216 2711.67 415.334C2713.65 416.453 2714.86 418.555 2714.84 420.826C2714.83 423.097 2713.58 425.18 2711.59 426.269C2708.61 427.897 2704.87 426.849 2703.17 423.909C2701.47 420.969 2702.43 417.21 2705.33 415.44Z"/><path fill="#FFFEFE" d="M2044.5 711.485C2046.12 710.364 2048.23 710.23 2049.98 711.138C2051.74 712.045 2052.84 713.845 2052.86 715.818C2052.88 717.79 2051.81 719.613 2050.08 720.556C2047.59 721.911 2044.47 721.081 2042.99 718.666C2041.5 716.252 2042.17 713.097 2044.5 711.485Z"/><path d="M2253.29 663.503L2255.24 664.799L2255.48 667.189C2254.18 670.689 2251.37 673.002 2248.75 675.538L2246.56 674.477C2246.76 671.144 2251.37 666.602 2253.29 663.503Z"/><path fill="#FEAB3E" d="M2498.61 186.021C2488.85 177.347 2479.82 161.12 2487.27 148.715C2499 129.162 2524.96 120.199 2546.82 124.614C2553.4 125.942 2564.3 126.888 2567.27 134.139C2567.72 135.226 2565.61 137.716 2564.88 138.794C2563.3 142.867 2561.89 146.497 2560.59 150.694C2563.74 148.175 2569.49 143.234 2572.87 141.634C2593.21 131.194 2617.1 130.72 2638.65 137.637C2640.99 138.397 2643.32 139.206 2645.62 140.065L2638.12 145.69C2632.91 150.39 2630.94 153.506 2626.93 159.223C2634.24 155.897 2638.14 153.663 2645 149.424C2655.67 144.039 2655.82 145.767 2665.35 152.148L2658.87 157.6C2654.23 162.898 2652.63 164.994 2651 171.843L2651.84 173.347C2654.01 172.59 2654.67 171.251 2656.08 169.378C2678.69 146.947 2715.21 162.639 2738.34 174.934C2734.66 175.631 2728.32 176.649 2724.98 177.765C2718.46 179.636 2705.73 183.276 2707.61 191.743L2708.99 192.732C2712.98 190.882 2713.14 189.781 2716.33 187.406C2720.8 184.073 2730.14 183.321 2735.61 183.081C2767.07 184.798 2780.65 200.347 2787.54 230.548C2785 232.113 2783.97 232.304 2781.19 233.072C2772.84 236.568 2768.3 239.275 2761.26 245.23C2767.04 243.446 2773.81 241.093 2779.72 240.238C2808.02 237.874 2826.57 245.173 2850.83 259.363C2845.53 259.16 2839.74 258.817 2834.47 258.881C2823 260.869 2814.42 262.557 2803.45 266.469L2802.65 267.644C2810.87 270.922 2836.21 265.155 2845.29 267.487C2859.15 269.86 2882.36 284.213 2890.13 296.628C2901.81 315.3 2905.68 322.007 2903.83 344.052L2903.07 345.077C2900.34 344.598 2898.24 344.24 2895.55 343.467C2880.59 341.925 2873.66 342.31 2859.26 346.379C2900.73 359.304 2931.68 365.5 2955.21 404.742C2934.14 395.146 2916.83 389.283 2893.27 390.919C2888.3 391.264 2879.51 391.369 2876.41 394.907C2881.77 398.926 2895.67 395.97 2902.42 397.304C2949.84 406.675 2970.72 415.474 2976.05 466.214C2967.46 453.743 2958.67 444.981 2944.66 438.862C2895.66 417.473 2858.55 441.822 2842.37 489.487C2829.78 479.908 2826.28 476.012 2816.09 464.122C2816.48 455.413 2814.51 441.177 2815.91 433.403C2818.39 419.719 2822.55 412.691 2823.65 398.053C2811.21 413.082 2804.99 429.378 2804.56 448.795C2784.47 420.187 2785.29 405.766 2801.9 376.234C2792.34 383.261 2785.93 388.955 2779.3 398.704L2767.64 394.427C2754.23 347.833 2784.04 338.814 2806.4 306.917C2776.21 324.891 2746.67 352.266 2755.53 390.746C2729.23 374.371 2705.9 337.076 2730.06 308.463C2733.82 304.014 2738.09 300.969 2742.73 297.532C2724.45 303.106 2713.81 309.857 2708.43 328.765C2696.56 323.001 2689.33 323.799 2675.34 315.528C2670.98 283.607 2688.32 261.505 2709.38 240.573C2680.05 252.644 2670.2 279.7 2666.77 309.344C2637.34 283.389 2633.65 260.476 2642.89 223.569C2633.34 232.786 2628.52 241.453 2626.42 254.583C2620.52 255.786 2616.28 255.921 2610.31 256.247C2598.18 235.745 2604.66 217.297 2606.23 194.775C2605.49 195.916 2604.78 197.068 2604.08 198.23C2593.24 216.197 2592.8 233.525 2597.79 253.333C2576.31 245.65 2555.23 225.962 2552.46 202.496C2551.2 191.804 2552.88 185.101 2555.81 175.081C2548.83 184.085 2546.24 186.973 2543.54 198.245C2529.86 202.757 2529.82 182.517 2530.4 174.271C2531.14 163.86 2534.25 155.391 2537.77 145.703C2528.66 154.756 2521.62 167.079 2522.87 180.543C2523.38 186.02 2525.41 190.23 2524.55 195.833L2523.1 196.578C2517.36 196.035 2510.56 194.136 2505.78 190.819C2503.34 189.533 2500.88 187.64 2498.61 186.021Z"/><path fill="#FFFEFE" d="M2498.61 186.021C2488.85 177.347 2479.82 161.12 2487.27 148.715C2499 129.162 2524.96 120.199 2546.82 124.614C2553.4 125.942 2564.3 126.888 2567.27 134.139C2567.72 135.226 2565.61 137.716 2564.88 138.794C2543.92 126.299 2518.7 127.26 2505.32 150.172C2498.76 161.401 2499.05 173.47 2498.61 186.021Z"/><path fill="#FFFEFE" d="M2845.29 267.487C2859.15 269.86 2882.36 284.213 2890.13 296.628C2901.81 315.3 2905.68 322.007 2903.83 344.052L2903.07 345.077C2900.34 344.598 2898.24 344.24 2895.55 343.467C2889.81 330.213 2890.47 321.965 2881.74 307.588C2875.69 297.629 2847.63 273.369 2845.29 267.487Z"/><path fill="#FFFEFE" d="M2735.61 183.081C2767.07 184.798 2780.65 200.347 2787.54 230.548C2785 232.113 2783.97 232.304 2781.19 233.072C2771.57 222.999 2766.11 209.586 2755.75 200.124C2749.25 194.193 2742.29 188.799 2735.61 183.081Z"/><path fill="#FFFEFE" d="M2656.08 169.378C2678.69 146.947 2715.21 162.639 2738.34 174.934C2734.66 175.631 2728.32 176.649 2724.98 177.765C2696.75 163.365 2685.05 165.244 2656.08 169.378Z"/><path fill="#FFFEFE" d="M2779.72 240.238C2808.02 237.874 2826.57 245.173 2850.83 259.363C2845.53 259.16 2839.74 258.817 2834.47 258.881C2814.84 243.104 2789.56 246.869 2779.72 240.238Z"/><path fill="#FFFEFE" d="M2572.87 141.634C2593.21 131.194 2617.1 130.72 2638.65 137.637C2640.99 138.397 2643.32 139.206 2645.62 140.065L2638.12 145.69C2622.59 139.515 2606.36 134.827 2589.51 137.285C2583.84 138.112 2578.95 141.2 2572.87 141.634Z"/><path d="M2520.59 139.855C2519.84 143.761 2510.96 148.159 2507.35 160.335C2504.48 170.016 2507.19 188.496 2505.78 190.819C2498.31 173.901 2502.13 147.64 2520.59 139.855Z"/><path fill="#FFFEFE" d="M2645 149.424C2655.67 144.039 2655.82 145.767 2665.35 152.148L2658.87 157.6C2655.11 155.066 2649.06 151.777 2645 149.424Z"/><path fill="#FFFEFE" d="M2778.28 252.861C2779.65 252.825 2780.83 253.135 2782.16 253.423L2783.08 255.023C2781.65 260.049 2772.91 263.738 2769.17 267.828C2759.7 278.207 2753.7 292.136 2745.32 303.509C2744.04 303.953 2743.41 303.782 2742.18 303.391C2741.52 303.183 2741.72 303.332 2741.35 302.439C2739.87 298.952 2743.68 288.694 2745.19 285.081C2751.75 269.295 2762.66 259.471 2778.28 252.861Z"/><path fill="#FFFEFE" d="M2695.95 220.846C2697.12 221.202 2697.21 221.507 2697.98 222.492C2696.65 225.438 2679.74 236.836 2673.88 248.957C2671.76 253.359 2669.96 258.452 2669.21 263.291C2668.2 269.817 2670.22 281.566 2666.42 286.865L2663.99 286.721C2663.71 286.232 2663.44 285.737 2663.18 285.235C2658.79 276.76 2658.39 266.699 2661.32 257.691C2666.82 240.825 2680.5 228.563 2695.95 220.846Z"/><path fill="#FFFEFE" d="M2894.15 403.114C2901.58 402.318 2911.07 401.812 2917.29 406.631L2917.33 408.365C2910.73 414.319 2897.94 412.972 2889.67 416.092L2888.75 416.45C2886.97 417.489 2885.15 418.457 2883.29 419.352C2879.94 420.938 2876.06 422.759 2872.35 421.26C2870.91 420.678 2870.85 419.828 2870.23 418.48C2870.44 417.244 2870.72 415.986 2871.39 414.905C2876.06 407.301 2886.14 405.172 2894.15 403.114Z"/><path d="M2858.71 312.369C2864.31 312.037 2871.88 312.065 2876.98 314.659L2876.99 316.031C2871.06 317.914 2863.64 317.757 2857.4 318.576C2838.45 321.065 2824.66 329.765 2810.04 341.631C2807.2 344.429 2803.7 348.813 2799.96 350.127C2800.93 348.399 2802.05 346.758 2803.3 345.223C2817.37 327.749 2836.09 314.799 2858.71 312.369Z"/><path d="M2590.55 154.725C2591.96 162.024 2576.47 201.254 2580.06 212.819C2580.4 213.914 2579.87 219.042 2579.52 220.344L2576.62 221.553C2570.17 201.338 2578.88 171.639 2590.55 154.725Z"/><path d="M2731.13 245.719L2732.34 246.421C2729.91 253.12 2721.08 261.547 2716.5 267.236C2705.57 280.816 2697.86 294.535 2692.88 311.239L2691.77 311.037C2691.57 310.05 2691.42 309.033 2691.53 308.024C2694.24 281.919 2712.13 262.113 2731.13 245.719Z"/><path d="M2690.5 179.707C2691.57 179.904 2691.65 180.099 2692.46 180.766C2672.47 193.321 2665.72 210.637 2660.22 232.764L2658.28 232.873L2657.07 231.611C2657.11 227.005 2657.76 222.425 2658.99 217.988C2663.7 200.714 2675.19 188.378 2690.5 179.707Z"/><path fill="#FFFEFE" d="M2817.12 312.772C2819.06 313.485 2818.91 313.632 2819.76 315.401C2818.24 319.761 2800.92 335.377 2796.49 340.417C2795.18 340.052 2794.42 339.235 2793.46 338.333C2793.26 337.389 2793.12 336.393 2793.3 335.431C2794.98 326.561 2810.24 317.347 2817.12 312.772Z"/><path fill="#FFFEFE" d="M2633.11 171.398L2635.26 172.439L2635.89 174.472C2634.18 181.971 2631.73 194.56 2626.12 199.315C2624.73 198.486 2623.85 197.482 2622.71 196.343C2619.49 186.976 2626.38 177.301 2633.11 171.398Z"/><path fill="#FFFEFE" d="M2756.34 305.751C2757.1 305.777 2757.9 305.762 2758.62 306.045C2761.24 307.077 2761.75 307.89 2762.65 310.335C2761.1 315.585 2755.59 319.881 2751.78 323.671C2749.59 324.105 2748.42 323.686 2746.37 322.891C2745.39 321.193 2745.15 320.33 2745.54 318.335C2746.62 312.799 2752.11 308.826 2756.34 305.751Z"/><path fill="#FFFEFE" d="M2841.35 355.986C2842.02 355.864 2842.7 355.767 2843.38 355.695C2846 355.426 2850.28 355.634 2852.33 357.277L2852.15 358.877C2848.71 362.614 2844.87 363.836 2840.53 366.279C2839.38 367.182 2838.22 368.153 2836.98 368.925C2834.81 370.279 2834.05 370.379 2831.65 369.889L2831.01 367.779C2833.03 361.225 2835.56 359.539 2841.35 355.986Z"/><path d="M2827.61 292.281C2830.83 291.947 2834.26 291.585 2837.48 291.953C2840.09 292.25 2842.76 293.545 2844.43 295.575L2843.75 297.428C2840.74 299.483 2837.28 299.18 2833.78 299.238C2829.22 300.019 2825.23 301.337 2820.83 299.416L2820.49 297.485C2822.54 294.94 2824.77 293.761 2827.61 292.281Z"/><path fill="#FFFEFE" d="M2895.87 380.212C2900.39 379.861 2906.68 379.281 2910.46 382.379C2911.65 383.357 2911.47 383.963 2911.64 385.408L2909.89 387.539C2905.33 386.979 2896.67 387.082 2893.25 384.351L2893.37 382.409L2895.87 380.212Z"/><path d="M2694.1 202.776L2694.94 203.161C2695.28 203.88 2695.79 204.426 2695.57 205.223C2694.27 209.96 2688.79 212.785 2684.86 215.048L2683.59 214.034C2684.73 208.845 2689.98 205.763 2694.1 202.776Z"/><path fill="#FFFEFE" d="M2641.2 188.23C2641.33 188.265 2641.46 188.292 2641.6 188.335C2644.31 189.229 2644.96 189.443 2646.42 191.976C2646.14 195.352 2644.55 197.172 2642.51 199.731C2640.47 198.895 2639.52 198.235 2638.32 196.367C2637.81 193.257 2639.7 190.804 2641.2 188.23Z"/><path d="M2865.43 408.528C2866.16 409.226 2867.62 410.216 2867.69 411.208C2868.02 415.675 2864.94 419.077 2862.26 422.308C2860.9 421.466 2860.84 420.96 2860.19 419.539C2860.83 415.334 2863.2 412.04 2865.43 408.528Z"/><path fill="#FEAB3E" d="M2903.57 442.175C2921.95 441.491 2940.3 446.929 2954.78 458.525C2962.23 464.495 2968.82 473.196 2969.77 482.976C2971.84 504.361 2954.19 532.404 2941.29 548.127C2924.07 569.103 2895.83 585.431 2870.21 593.702C2857.09 597.941 2841.82 599.177 2828.15 601.241C2802.47 605.106 2776.76 608.822 2751.04 612.388C2665.53 624.024 2579.67 636.043 2493.76 644.289C2473.8 646.523 2453.65 647.985 2433.61 649.318C2434.05 632.063 2438.18 612.823 2447.98 598.354C2480.07 551.002 2568.65 558.931 2619.35 554.949C2657.28 551.969 2694.7 545.114 2732.71 542.353C2753.31 540.858 2774.05 540.602 2794.68 539.911C2806.61 539.511 2819.21 539.612 2830.94 537.36C2888.14 526.376 2844.75 497.774 2864.19 469.47C2874.15 454.977 2885.98 445.526 2903.57 442.175Z"/><path d="M2553.42 620.458C2558.3 620.249 2563.25 621.055 2568.1 621.607C2544.95 631.72 2509.02 637.019 2483.8 633.874C2479.5 633.611 2475.07 631.861 2470.96 630.626C2484.28 627.883 2498.05 627.271 2511.57 625.809C2525.53 624.299 2539.47 622.175 2553.42 620.458Z"/><path fill="#FFFEFE" d="M2781.82 583.523C2785.24 581.924 2789.26 582.332 2792.29 584.586C2795.32 586.839 2796.87 590.575 2796.33 594.312C2795.78 598.049 2793.23 601.185 2789.68 602.476C2784.51 604.355 2778.78 601.836 2776.68 596.76C2774.57 591.684 2776.84 585.85 2781.82 583.523Z"/><path d="M2518.11 581.473C2523.02 579.94 2528.27 582.567 2529.98 587.42C2531.7 592.272 2529.27 597.613 2524.49 599.509C2521.23 600.8 2517.52 600.207 2514.83 597.963C2512.14 595.718 2510.89 592.182 2511.57 588.744C2512.25 585.307 2514.76 582.517 2518.11 581.473Z"/><path d="M2874.1 540.584C2878.12 538.501 2883.06 540.092 2885.1 544.125C2887.15 548.158 2885.51 553.086 2881.46 555.093C2877.46 557.075 2872.61 555.464 2870.59 551.484C2868.58 547.504 2870.14 542.64 2874.1 540.584Z"/><path fill="#FFFEFE" d="M2837.16 569.503C2840.96 567.798 2845.43 569.373 2847.33 573.084C2849.22 576.796 2847.87 581.341 2844.26 583.419C2841.76 584.859 2838.66 584.802 2836.21 583.271C2833.77 581.741 2832.36 578.985 2832.56 576.104C2832.75 573.223 2834.52 570.685 2837.16 569.503Z"/><path d="M2718.95 578.938C2721.56 578.675 2723.7 578.571 2726.18 579.561C2729.25 580.79 2731.84 582.32 2733.15 585.492C2732.79 588.295 2732.58 588.601 2730.71 590.737C2726.48 591.623 2722.21 592.998 2718.31 590.296C2716.77 589.225 2716.04 588.06 2715.84 586.15C2715.55 583.324 2717.36 581.049 2718.95 578.938Z"/><path fill="#FFFEFE" d="M2893.1 474.565C2896.41 472.653 2900.64 473.728 2902.64 476.99C2904.64 480.251 2903.68 484.511 2900.47 486.597C2898.32 487.996 2895.58 488.117 2893.31 486.913C2891.05 485.708 2889.61 483.368 2889.57 480.802C2889.52 478.236 2890.87 475.847 2893.1 474.565Z"/><path d="M2902.54 502.551C2905.69 501.851 2908.83 503.783 2909.62 506.912C2910.41 510.042 2908.58 513.235 2905.47 514.122C2903.38 514.72 2901.13 514.133 2899.59 512.589C2898.06 511.045 2897.49 508.789 2898.1 506.7C2898.71 504.612 2900.41 503.022 2902.54 502.551Z"/><path d="M2940.54 497.468C2942.54 496.455 2944.94 496.668 2946.73 498.017C2948.52 499.367 2949.38 501.618 2948.96 503.82C2948.53 506.021 2946.89 507.789 2944.73 508.376C2941.82 509.164 2938.79 507.626 2937.71 504.815C2936.63 502.004 2937.85 498.83 2940.54 497.468Z"/><path d="M2756.38 558.569C2759.31 557.944 2762.23 559.726 2763 562.625C2763.78 565.524 2762.16 568.526 2759.3 569.456C2757.32 570.102 2755.14 569.6 2753.64 568.152C2752.13 566.703 2751.55 564.543 2752.13 562.537C2752.7 560.53 2754.34 559.004 2756.38 558.569Z"/><path d="M2587.76 614.852C2589.13 614.864 2590.66 614.816 2592.01 615.116C2594.43 615.658 2595.36 616.547 2596.64 618.492C2596.15 621.286 2595.35 621.945 2593.51 623.995L2593.03 623.904C2590.02 623.315 2585.74 623.188 2583.73 620.663C2584.31 617.656 2585.6 616.961 2587.76 614.852Z"/><path d="M2809.4 562.572C2811.8 561.778 2814.41 562.953 2815.41 565.276C2816.41 567.6 2815.46 570.3 2813.23 571.494C2811.61 572.362 2809.63 572.242 2808.13 571.183C2806.62 570.123 2805.84 568.306 2806.11 566.485C2806.38 564.663 2807.65 563.149 2809.4 562.572Z"/><path d="M2662.01 595.572C2663.61 594.879 2665.46 595.097 2666.85 596.145C2668.24 597.192 2668.96 598.907 2668.74 600.634C2668.51 602.362 2667.38 603.836 2665.77 604.495C2663.31 605.499 2660.5 604.338 2659.47 601.893C2658.44 599.447 2659.58 596.628 2662.01 595.572Z"/><path d="M2618.01 565.44C2620.14 563.922 2623.1 564.416 2624.62 566.544C2626.14 568.672 2625.65 571.63 2623.53 573.155C2621.4 574.683 2618.43 574.192 2616.91 572.059C2615.38 569.927 2615.88 566.962 2618.01 565.44Z"/><path fill="#FEAB3E" d="M2322.36 568.393C2322.94 568.316 2323.48 568.249 2324.07 568.248C2332.72 568.23 2343.6 569.141 2350.02 575.516C2364.03 589.428 2349.51 617.598 2345.77 633.759C2344.11 640.942 2343.87 647.598 2343.92 654.934C2336.09 655.428 2328.27 655.825 2320.43 656.124C2309.52 656.952 2298.6 657.635 2287.67 658.172C2289.25 631.303 2285.51 602.513 2296.43 577.238C2304.54 571.465 2312.67 569.406 2322.36 568.393Z"/><path fill="#FEAB3E" d="M2165.47 580.959C2173.28 580.9 2180.66 583.133 2186.65 588.317C2207.71 606.534 2197.12 639.377 2199.18 663.516C2183.16 664.019 2167.12 664.098 2151.1 663.753C2139.55 663.144 2128.23 663.331 2116.71 664.082C2122.68 645.556 2131.34 626.403 2139.65 608.772C2145.32 596.739 2152.43 585.647 2165.47 580.959Z"/></svg>